<svg width="200" height="144" viewBox="0 0 200 144" fill="none" xmlns="http://www.w3.org/2000/svg">
<path d="M146.622 38.7378L142.789 36.6498C141.106 28.3911 137.086 21.0051 131.445 15.1772C128.266 11.8738 124.589 9.10012 120.506 6.91858V4.48773C120.506 3.20997 118.076 2.05688 114.149 1.24659C110.471 0.467472 105.485 0 100 0C98.0678 0 96.1979 0.0623296 94.3903 0.155824C85.7888 0.685625 79.4936 2.43085 79.4936 4.45656V6.88742C76.7511 8.35216 74.1956 10.0974 71.827 12.0919C64.5033 18.3249 59.2365 26.8952 57.2107 36.6498L53.3775 38.7378C51.6323 39.6728 50.6973 41.6362 51.0401 43.5684L54.5306 63.171C54.8734 65.1656 56.494 66.6615 58.4885 66.9108L64.3475 67.6276C67.5263 71.0557 71.5465 73.7359 76.1901 75.6993C82.4231 78.3483 89.7468 79.7507 97.6315 79.9688C98.4106 80 99.2209 80 100 80C106.015 80 111.749 79.3455 116.985 78.0055C123.841 76.2291 129.825 73.2372 134.344 68.9365C134.873 68.4379 135.403 67.9081 135.902 67.3471L141.418 66.8173C143.475 66.6303 145.127 65.1032 145.501 63.0464L148.96 43.5372C149.303 41.6362 148.368 39.6728 146.622 38.7378Z" fill="url(#paint0_linear_646_1189)"/>
<path d="M100 69.3104C89.5912 69.3104 81.0521 67.16 75.3178 63.0774C69.7393 59.1195 67.028 53.354 67.028 45.4693C67.028 27.2691 81.8312 12.4658 100.031 12.4658C118.232 12.4658 133.035 27.2691 133.035 45.4693C133.035 53.354 130.324 59.0883 124.745 63.0774C118.948 67.16 110.409 69.3104 100 69.3104Z" fill="white"/>
<path d="M100 61.7063C93.5178 61.7063 87.503 57.9042 84.667 52.0452L89.9027 49.552C91.8037 53.4788 95.6682 55.9408 100 55.9408C104.332 55.9408 108.228 53.5099 110.097 49.552L115.333 52.0452C112.497 57.9042 106.482 61.7063 100 61.7063Z" fill="#121826"/>
<path d="M12.9983 132.593C10.3104 132.593 7.82303 132.073 5.5363 131.033C3.28968 129.954 1.44425 128.454 0 126.534L4.45311 121.195C6.77996 124.394 9.56817 125.994 12.8177 125.994C17.1906 125.994 19.377 123.415 19.377 118.255V96.5389V90H27.2001V117.835C27.2001 122.755 25.9965 126.454 23.5894 128.934C21.1824 131.373 17.652 132.593 12.9983 132.593Z" fill="#121826"/>
<path d="M47.4697 99.5984C52.2037 99.5984 55.8143 100.738 58.3016 103.018C60.829 105.258 62.0928 108.657 62.0928 113.216V131.993H54.9919V128.094C54.0691 129.494 52.7453 130.573 51.0202 131.333C49.3352 132.053 47.2892 132.413 44.8821 132.413C42.475 132.413 40.3688 132.013 38.5635 131.213C36.7582 130.373 35.354 129.234 34.3511 127.794C33.3883 126.314 32.9068 124.654 32.9068 122.815C32.9068 119.935 33.97 117.636 36.0962 115.916C38.2626 114.156 41.6526 113.276 46.2662 113.276H54.5706V112.796C54.5706 110.557 53.8886 108.837 52.5246 107.637C51.2007 106.437 49.2149 105.837 46.5671 105.837C44.7617 105.837 42.9765 106.117 41.2113 106.677C39.4862 107.237 38.0219 108.017 36.8184 109.017L33.8697 103.558C35.5546 102.278 37.5806 101.298 39.9476 100.618C42.3145 99.9384 44.8219 99.5984 47.4697 99.5984ZM46.4467 126.954C48.3323 126.954 49.9972 126.534 51.4414 125.694C52.9258 124.814 53.9688 123.575 54.5706 121.975V118.255H46.8078C42.475 118.255 40.3086 119.675 40.3086 122.515C40.3086 123.874 40.8502 124.954 41.9334 125.754C43.0166 126.554 44.521 126.954 46.4467 126.954Z" fill="#121826"/>
<path d="M81.6757 132.413C79.068 132.413 76.5206 132.073 74.0332 131.393C71.5459 130.713 69.5601 129.854 68.0757 128.814L70.9642 123.115C72.4084 124.074 74.1335 124.854 76.1394 125.454C78.1855 126.014 80.1914 126.294 82.1571 126.294C86.6504 126.294 88.897 125.114 88.897 122.755C88.897 121.635 88.3153 120.855 87.1518 120.415C86.0285 119.975 84.2032 119.555 81.6757 119.155C79.0279 118.755 76.8616 118.295 75.1766 117.775C73.5318 117.256 72.0875 116.356 70.8438 115.076C69.6403 113.756 69.0385 111.936 69.0385 109.617C69.0385 106.577 70.3022 104.158 72.8297 102.358C75.3972 100.518 78.8474 99.5984 83.1802 99.5984C85.3867 99.5984 87.5932 99.8584 89.7996 100.378C92.0061 100.858 93.8114 101.518 95.2156 102.358L92.3271 108.057C89.5991 106.457 86.53 105.657 83.12 105.657C80.9135 105.657 79.2285 105.997 78.0651 106.677C76.9418 107.317 76.3801 108.177 76.3801 109.257C76.3801 110.457 76.9819 111.317 78.1854 111.836C79.4291 112.316 81.3347 112.776 83.9023 113.216C86.4698 113.616 88.576 114.076 90.2209 114.596C91.8657 115.116 93.2699 115.996 94.4333 117.236C95.6368 118.475 96.2386 120.235 96.2386 122.515C96.2386 125.514 94.9348 127.914 92.3271 129.714C89.7194 131.513 86.169 132.413 81.6757 132.413Z" fill="#121826"/>
<path d="M120.529 99.5984C123.658 99.5984 126.446 100.278 128.894 101.638C131.381 102.998 133.327 104.918 134.731 107.397C136.135 109.877 136.837 112.736 136.837 115.976C136.837 119.215 136.135 122.095 134.731 124.614C133.327 127.094 131.381 129.014 128.894 130.373C126.446 131.733 123.658 132.413 120.529 132.413C116.196 132.413 112.766 130.973 110.239 128.094V143.631H102.717V99.9584H109.878V104.158C111.121 102.638 112.646 101.498 114.451 100.738C116.297 99.9784 118.323 99.5984 120.529 99.5984ZM119.687 125.994C122.455 125.994 124.721 125.074 126.487 123.235C128.292 121.395 129.195 118.975 129.195 115.976C129.195 112.976 128.292 110.557 126.487 108.717C124.721 106.877 122.455 105.957 119.687 105.957C117.881 105.957 116.256 106.377 114.812 107.217C113.368 108.017 112.225 109.177 111.382 110.697C110.54 112.216 110.118 113.976 110.118 115.976C110.118 117.975 110.54 119.735 111.382 121.255C112.225 122.775 113.368 123.954 114.812 124.794C116.256 125.594 117.881 125.994 119.687 125.994Z" fill="#121826"/>
<path d="M174.18 116.156C174.18 116.676 174.14 117.416 174.059 118.375H148.845C149.286 120.735 150.43 122.615 152.275 124.014C154.161 125.374 156.488 126.054 159.256 126.054C162.786 126.054 165.695 124.894 167.982 122.575L172.013 127.194C170.569 128.914 168.744 130.213 166.537 131.093C164.331 131.973 161.843 132.413 159.075 132.413C155.545 132.413 152.436 131.713 149.748 130.313C147.06 128.914 144.974 126.974 143.489 124.494C142.045 121.975 141.323 119.135 141.323 115.976C141.323 112.856 142.025 110.057 143.429 107.577C144.873 105.058 146.859 103.098 149.387 101.698C151.914 100.298 154.763 99.5984 157.932 99.5984C161.061 99.5984 163.849 100.298 166.297 101.698C168.784 103.058 170.71 104.998 172.074 107.517C173.478 109.997 174.18 112.876 174.18 116.156ZM157.932 105.597C155.525 105.597 153.479 106.317 151.794 107.757C150.149 109.157 149.146 111.037 148.785 113.396H167.019C166.698 111.077 165.715 109.197 164.07 107.757C162.425 106.317 160.379 105.597 157.932 105.597Z" fill="#121826"/>
<path d="M188.566 104.638C190.733 101.278 194.544 99.5984 200 99.5984V106.737C199.358 106.617 198.776 106.557 198.255 106.557C195.326 106.557 193.04 107.417 191.395 109.137C189.75 110.817 188.927 113.256 188.927 116.456V131.993H181.405V99.9584H188.566V104.638Z" fill="#121826"/>
<defs>
<linearGradient id="paint0_linear_646_1189" x1="76.2156" y1="73.1891" x2="129.804" y2="14.8488" gradientUnits="userSpaceOnUse">
<stop stop-color="#FF61D3"/>
<stop offset="0.5" stop-color="#B318FF"/>
<stop offset="1" stop-color="#00F0FF"/>
</linearGradient>
</defs>
</svg>
