<?xml version="1.0" encoding="utf-8"?>
<!-- Generator: Adobe Illustrator 25.0.1, SVG Export Plug-In . SVG Version: 6.00 Build 0)  -->
<svg version="1.0" id="katman_1" xmlns="http://www.w3.org/2000/svg" xmlns:xlink="http://www.w3.org/1999/xlink" x="0px" y="0px"
	 viewBox="0 0 800 600" style="enable-background:new 0 0 800 600;" xml:space="preserve">
<path d="M139.9,326.3l-27.3-27.3c-4.6-4.6-12.2-4.6-16.8,0c-4.6,4.6-4.6,12.2,0,16.8l35.8,35.8c4.6,4.6,12.1,4.7,16.8,0c0,0,0,0,0,0
	l14.3-14.4l-17.2-16.5L139.9,326.3z"/>
<path d="M190.4,326.3l-8.4-8.4l52.5-52.6c4.6-4.6,4.7-12.2,0-16.8s-12.2-4.7-16.8,0c0,0,0,0,0,0l-27.3,27.3L163,248.4
	c-4.6-4.6-12.2-4.6-16.8,0c-4.6,4.6-4.6,12.2,0,16.8l27.3,27.3l-8.4,8.4l-27.3-27.3c-4.6-4.6-12.2-4.6-16.8,0
	c-4.6,4.6-4.6,12.2,0,16.8l60.9,61c4.6,4.6,12.1,4.7,16.8,0c0,0,0,0,0,0l14.4-14.4l-16.9-16.8L190.4,326.3z"/>
<path d="M268.1,298.9l-27.3,27.3l-8.4-8.4l27.3-27.3c4.6-4.6,4.6-12.2,0-16.8c-4.6-4.6-12.2-4.6-16.8,0L215.6,301l-6-6L192.9,312
	l39.5,39.5c4.6,4.6,12.1,4.7,16.8,0c0,0,0,0,0,0l35.8-35.8c4.5-4.7,4.4-12.3-0.4-16.8C280,294.5,272.7,294.5,268.1,298.9
	L268.1,298.9z"/>
<path d="M544.9,331.2c-5.5,0-9.2-3.5-9.2-9.5v-26.1h17.8v-11.9h-17.8v-19.8h-14v19.8h-11.1v11.9h11.1v26.1c0,14.3,8.5,22,22,22
	c4.6,0.1,9.2-1.1,13.1-3.5l-3.7-11C550.5,330.6,547.7,331.3,544.9,331.2z"/>
<path d="M708,312.6c0-16.5-8.9-30-27-30c-16.9,0-28.9,13-28.9,30.7s11.7,30.5,29.9,30.5c10.9,0,18.6-3.6,24.4-10.6l-9.7-8
	c-2.8,3.7-7.7,6.8-14.6,6.8c-9.8,0-15.4-5.1-15.8-14.5H708L708,312.6z M666.4,307.4c0.5-8.2,6.1-13.7,14.4-13.7
	c8.3,0,13.1,5.6,13.5,13.7H666.4z"/>
<polygon points="349.9,256.7 335.3,256.7 335.3,342.6 388.9,342.6 388.9,329.6 349.9,329.6 "/>
<path d="M622.8,331.5c-10.4,0-16.1-8.1-16.1-18.4c0-10.3,5.5-18.4,16-18.4c6.5,0,10.9,3.7,13.6,8.4l10.2-7.7
	c-5-8.3-14.2-13.3-23.9-13c-18.1,0-30.2,12.9-30.2,30.6c0,17.8,12.2,30.6,30.3,30.6c9.8,0.3,19-4.6,24.1-13l-10.1-7.8
	C633.8,327.7,629.2,331.5,622.8,331.5z"/>
<path d="M573.2,256.2c-4.6-0.1-8.5,3.5-8.7,8.2c0,0.2,0,0.3,0,0.5c0,4.8,3.9,8.7,8.7,8.7c4.8,0,8.7-3.9,8.7-8.7
	c0.1-4.7-3.6-8.5-8.2-8.7C573.5,256.2,573.3,256.2,573.2,256.2z"/>
<path d="M496.6,331.2c-5.5,0-9.2-3.5-9.2-9.5v-26.1h17.8v-11.9h-17.8v-19.8h-14v19.8h-11.1v11.9h11.1v26.1c0,14.3,8.5,22,22,22
	c4.6,0.1,9.2-1.1,13.1-3.5l-3.7-11C502.2,330.6,499.4,331.3,496.6,331.2z"/>
<rect x="566.1" y="283.7" width="14" height="58.9"/>
<path d="M438.6,290.6c-3.3-4.4-9.2-8.1-18.1-8.1c-16,0-26.9,12.9-26.9,30.6c0,17.8,10.9,30.6,26.9,30.6c8.9,0,14.9-3.6,18.1-8.1
	l0.7,6.9h12.6v-58.9h-12.6L438.6,290.6z M437.9,322.6c-3.2,5-7.4,8.8-14.4,8.8c-9.1,0-15.7-7.1-15.7-18.2c0-11.1,6.5-18.2,15.7-18.2
	c7,0,11.2,3.7,14.4,8.8V322.6z"/>
</svg>
