<svg version="1.1" id="Layer_1" xmlns:x="ns_extend;" xmlns:i="ns_ai;" xmlns:graph="ns_graphs;" xmlns="http://www.w3.org/2000/svg" xmlns:xlink="http://www.w3.org/1999/xlink" x="0px" y="0px" viewBox="0 0 246.2 51.8" style="enable-background:new 0 0 246.2 51.8;" xml:space="preserve">
 <style type="text/css">
  .st0{fill:#FFFFFF;}
	.st1{fill-rule:evenodd;clip-rule:evenodd;fill:#FFFFFF;}
 </style>
 <metadata>
  <sfw xmlns="ns_sfw;">
   <slices>
   </slices>
   <sliceSourceBounds bottomLeftOrigin="true" height="51.8" width="246.2" x="76.6" y="-226.1">
   </sliceSourceBounds>
  </sfw>
 </metadata>
 <g>
  <path class="st0" d="M65,36.4h-6.2V6.6c3.3-0.6,6.6-0.8,9.9-0.8c6.8,0,12.2,1.3,12.2,9.6c0,8.1-4.9,9.8-11.9,9.8
		c-1.3,0-2.9-0.1-4-0.1V36.4z M65,20.2c1.2,0.1,2.5,0.2,3.8,0.2c3.9,0,6-1,6-5c0-3.4-1.4-4.8-5.9-4.8c-1.3,0-2.6,0.1-3.9,0.3
		L65,20.2z M82.8,24.8c0-8.4,2.7-11.9,10.4-11.9c8.5,0,10.2,4.4,10.2,11.5c0,0.6,0,1.2-0.1,1.9c-2.7,0.5-7.8,1-11,1.2l-3.8,0.2
		c0.2,3.6,2.1,4.5,5.5,4.5c2.8,0,5.6-0.2,8.4-0.6l0.5,4.4c-3.4,0.6-6.7,0.9-10.2,0.9C84.8,36.7,82.8,31.7,82.8,24.8z M92.3,23.4
		c1.5-0.1,3.8-0.3,5.2-0.5c0-0.3,0-0.6,0-0.9c0-3-1.1-4.7-4.4-4.7c-4.3,0-4.8,2.6-4.8,6.3L92.3,23.4z M106.6,36.4v-17
		c0-1.6,0.1-2.9,0.2-4.4c2.9-1.5,6.1-2.2,9.3-2.1c0.8,0,1.6,0,2.4,0.1l-0.5,4.6c-0.6-0.1-1.1-0.1-1.7-0.1c-1.3,0-2.6,0.2-3.8,0.7
		c-0.1,1-0.1,2.1-0.1,3.1v15L106.6,36.4z M136.3,35.8c-2.5,0.6-5,0.9-7.6,0.9c-7.8,0-9-5.9-9-12.1c0-7.6,1.8-11.7,10.3-11.7
		c2.1,0,4.2,0.3,6.2,0.9l-0.4,4.2c-1.4-0.3-2.8-0.5-4.2-0.5c-5.4,0-6,1.6-6,7.1c0,5.2,0.2,7.4,6,7.4c1.4,0,2.8-0.2,4.1-0.5
		L136.3,35.8z M138,24.8c0-8.4,2.6-11.9,10.4-11.9c8.5,0,10.2,4.4,10.2,11.5c0,0.6,0,1.2-0.1,1.9c-2.6,0.5-7.8,1-11,1.2l-3.8,0.2
		c0.2,3.6,2.1,4.5,5.5,4.5c2.8,0,5.6-0.2,8.4-0.6l0.5,4.4c-3.4,0.6-6.7,0.9-10.1,0.9C140.1,36.7,138,31.7,138,24.8L138,24.8z
		 M147.6,23.4c1.5-0.1,3.9-0.3,5.2-0.5c0-0.3,0.1-0.6,0.1-0.9c0-3-1.1-4.7-4.4-4.7c-4.3,0-4.8,2.6-4.8,6.3L147.6,23.4z M167.6,45
		h-5.8V19.5c0-1.5,0.1-2.9,0.2-4.4c2.9-1.5,6.1-2.2,9.3-2.1c7.7,0,11,2.8,11,11.9s-3.2,11.9-10.3,11.9c-1.5,0-3-0.2-4.4-0.5
		L167.6,45z M170.9,32.2c5.5,0,5.7-3.1,5.7-7.4c0-3.8-0.2-7.4-5.2-7.4c-1.2,0-2.5,0.2-3.6,0.6c-0.1,1-0.1,2.1-0.1,3.1v10.5
		C168.7,32,169.8,32.2,170.9,32.2L170.9,32.2z M193.4,6.7v6.6h4.6v4.4h-4.7v12c0,1.9,0.8,2.7,2.8,2.7c0.6,0,1.3,0,2-0.1l0.4,4.1
		c-1.3,0.2-2.7,0.4-4,0.4c-4.9,0-6.9-2.1-6.9-6.5V17.6h-3.8v-4.4h3.8V7.6L193.4,6.7z M216,13.2h5.9L211.1,45h-5.9l3.6-10.2
		l-9.3-21.6h6.1l5.8,14.3L216,13.2z M239.4,13.2h6.2l-7.8,11.1l8.4,12.1h-6.8l-5.1-7.7l-5.1,7.7H223l8.4-12l-7.8-11.2h6.6l4.6,6.9
		L239.4,13.2z">
  </path>
  <path class="st1" d="M12.2,15.5h6.1v15h-6.1V15.5z M21.3,42.7l-9.1,9.2V36.6h28.3c1.2,0,2.2-1,2.2-2.2v0V8.3c0-1.2-1-2.2-2.2-2.2
		H8.3c-1.2,0-2.2,1-2.2,2.2l0,0v34.4C2.7,42.7,0,40,0,36.6V6.1C0,2.7,2.7,0,6.1,0h36.6c3.4,0,6.1,2.7,6.1,6.1v30.5
		c0,3.4-2.7,6.1-6.1,6.1L21.3,42.7z M30.5,12.2h6.1v18.3h-6.1C30.5,30.5,30.5,12.2,30.5,12.2z M27.5,18.6v11.9h-6.1V18.6L27.5,18.6z
		">
  </path>
 </g>
</svg>