<?xml version="1.0" encoding="UTF-8"?>
<svg id="katman_1" xmlns="http://www.w3.org/2000/svg" xmlns:xlink="http://www.w3.org/1999/xlink" version="1.1" viewBox="0 0 841.89 595.28">
  <!-- Generator: Adobe Illustrator 29.3.1, SVG Export Plug-In . SVG Version: 2.1.0 Build 151)  -->
  <defs>
    <style>
      .st0 {
        fill: url(#Adsız_degrade_273);
      }

      .st1 {
        fill: url(#Adsız_degrade_272);
      }

      .st2 {
        fill: url(#Adsız_degrade_271);
      }

      .st3 {
        fill: url(#Adsız_degrade_191);
      }

      .st4 {
        fill: url(#Adsız_degrade_131);
      }

      .st5 {
        fill: url(#Adsız_degrade_10);
      }

      .st6 {
        fill: url(#Adsız_degrade_21);
      }

      .st7 {
        fill: url(#Adsız_degrade_20);
      }

      .st8 {
        fill: url(#Adsız_degrade_29);
      }

      .st9 {
        fill: url(#Adsız_degrade_28);
      }

      .st10 {
        fill: url(#Adsız_degrade_27);
      }

      .st11 {
        fill: url(#Adsız_degrade_17);
      }

      .st12 {
        fill: url(#Adsız_degrade_16);
      }

      .st13 {
        fill: url(#Adsız_degrade_19);
      }

      .st14 {
        fill: url(#Adsız_degrade_18);
      }

      .st15 {
        fill: url(#Adsız_degrade_13);
      }

      .st16 {
        fill: url(#Adsız_degrade_12);
      }

      .st17 {
        fill: url(#Adsız_degrade_15);
      }

      .st18 {
        fill: url(#Adsız_degrade_14);
      }

      .st19 {
        fill: url(#Adsız_degrade_25);
      }

      .st20 {
        fill: url(#Adsız_degrade_24);
      }

      .st21 {
        fill: url(#Adsız_degrade_22);
      }

      .st22 {
        fill: url(#Adsız_degrade_26);
      }

      .st23 {
        fill: url(#Adsız_degrade_31);
      }

      .st24 {
        fill: url(#Adsız_degrade_30);
      }

      .st25 {
        fill: url(#Adsız_degrade_32);
      }

      .st26 {
        fill: url(#Adsız_degrade_3);
      }

      .st27 {
        fill: url(#Adsız_degrade_2);
      }

      .st28 {
        fill: url(#Adsız_degrade_9);
      }

      .st29 {
        fill: url(#Adsız_degrade_5);
      }

      .st30 {
        fill: url(#Adsız_degrade_7);
      }

      .st31 {
        fill: url(#Adsız_degrade_6);
      }

      .st32 {
        fill: #0d213f;
      }

      .st33 {
        fill: none;
        stroke: #000;
        stroke-miterlimit: 10;
        stroke-width: .37px;
      }

      .st34 {
        fill: #0b5cff;
      }
    </style>
    <radialGradient id="Adsız_degrade_3" data-name="Adsız degrade 3" cx="17.89" cy="583.24" fx="17.89" fy="583.24" r="3.22" gradientTransform="translate(-4185.57 3744.18) rotate(48.26) scale(14.25 -9.48)" gradientUnits="userSpaceOnUse">
      <stop offset=".02" stop-color="#2752ee"/>
      <stop offset=".13" stop-color="#3b66ef"/>
      <stop offset=".46" stop-color="#77a3f4"/>
      <stop offset=".7" stop-color="#9cc9f7"/>
      <stop offset=".83" stop-color="#abd8f9"/>
    </radialGradient>
    <radialGradient id="Adsız_degrade_2" data-name="Adsız degrade 2" cx="20.04" cy="578.61" fx="20.04" fy="578.61" r="3.22" gradientTransform="translate(-3346.97 5045.26) rotate(33.81) scale(11.64 -10.21)" gradientUnits="userSpaceOnUse">
      <stop offset=".51" stop-color="#a8d5fa" stop-opacity="0"/>
      <stop offset=".54" stop-color="#a9d5f9" stop-opacity="0"/>
      <stop offset=".59" stop-color="#acd6f9" stop-opacity=".01"/>
      <stop offset=".65" stop-color="#b2d7f9" stop-opacity=".07"/>
      <stop offset=".72" stop-color="#b9d9f9" stop-opacity=".21"/>
      <stop offset=".8" stop-color="#c3dbf9" stop-opacity=".5"/>
      <stop offset=".88" stop-color="#cfdef9"/>
    </radialGradient>
    <radialGradient id="Adsız_degrade_19" data-name="Adsız degrade 19" cx="23.08" cy="607.01" fx="23.08" fy="607.01" r="3.22" gradientTransform="translate(-5997.58 -610.38) rotate(95.61) scale(11.65 -10.2)" gradientUnits="userSpaceOnUse">
      <stop offset=".5" stop-color="#a8d5fa" stop-opacity="0"/>
      <stop offset=".57" stop-color="#a8d5f9" stop-opacity="0"/>
      <stop offset=".63" stop-color="#aad5f9" stop-opacity="0"/>
      <stop offset=".69" stop-color="#add6f9" stop-opacity=".02"/>
      <stop offset=".76" stop-color="#b1d7f9" stop-opacity=".06"/>
      <stop offset=".82" stop-color="#b7d8f9" stop-opacity=".16"/>
      <stop offset=".88" stop-color="#bedaf9" stop-opacity=".32"/>
      <stop offset=".94" stop-color="#c6dbf9" stop-opacity=".6"/>
      <stop offset="1" stop-color="#cfdef9"/>
    </radialGradient>
    <radialGradient id="Adsız_degrade_13" data-name="Adsız degrade 13" cx="20.7" cy="571.1" fx="20.7" fy="571.1" r="3.22" gradientTransform="translate(-2377.37 3604.47) rotate(33.81) scale(11.69 -7.29)" gradientUnits="userSpaceOnUse">
      <stop offset=".4" stop-color="#504af4"/>
      <stop offset=".41" stop-color="#504bf4" stop-opacity=".98"/>
      <stop offset=".47" stop-color="#656bf5" stop-opacity=".58"/>
      <stop offset=".54" stop-color="#7888f6" stop-opacity=".31"/>
      <stop offset=".61" stop-color="#87a1f7" stop-opacity=".15"/>
      <stop offset=".68" stop-color="#94b4f7" stop-opacity=".06"/>
      <stop offset=".75" stop-color="#9ec4f8" stop-opacity=".02"/>
      <stop offset=".82" stop-color="#a5cff8" stop-opacity="0"/>
      <stop offset=".89" stop-color="#a9d5f8" stop-opacity="0"/>
      <stop offset=".97" stop-color="#abd8f9" stop-opacity="0"/>
    </radialGradient>
    <radialGradient id="Adsız_degrade_5" data-name="Adsız degrade 5" cx="22.77" cy="583.85" fx="22.77" fy="583.85" r="3.22" gradientTransform="translate(-3524.32 2468.66) rotate(55.07) scale(11.7 -7.29)" gradientUnits="userSpaceOnUse">
      <stop offset=".25" stop-color="#504af4"/>
      <stop offset=".25" stop-color="#504bf4" stop-opacity=".98"/>
      <stop offset=".34" stop-color="#656bf5" stop-opacity=".58"/>
      <stop offset=".42" stop-color="#7888f6" stop-opacity=".31"/>
      <stop offset=".51" stop-color="#87a1f7" stop-opacity=".15"/>
      <stop offset=".6" stop-color="#94b4f7" stop-opacity=".06"/>
      <stop offset=".69" stop-color="#9ec4f8" stop-opacity=".02"/>
      <stop offset=".78" stop-color="#a5cff8" stop-opacity="0"/>
      <stop offset=".87" stop-color="#a9d5f8" stop-opacity="0"/>
      <stop offset=".97" stop-color="#abd8f9" stop-opacity="0"/>
    </radialGradient>
    <radialGradient id="Adsız_degrade_6" data-name="Adsız degrade 6" cx="11.44" cy="559.63" fx="11.44" fy="559.63" r="3.22" gradientTransform="translate(-574.14 4441.73) rotate(7.81) scale(11.31 -7.52)" gradientUnits="userSpaceOnUse">
      <stop offset=".23" stop-color="#0d29f2"/>
      <stop offset=".31" stop-color="#1030f1"/>
      <stop offset=".43" stop-color="#1b44f1"/>
      <stop offset=".58" stop-color="#2c66f0"/>
      <stop offset=".75" stop-color="#4394ef"/>
      <stop offset=".88" stop-color="#5ac1ee"/>
    </radialGradient>
    <radialGradient id="Adsız_degrade_7" data-name="Adsız degrade 7" cx="-16.37" cy="587.59" fx="-16.37" fy="587.59" r="3.22" gradientTransform="translate(10996.53 2390.86) rotate(-77.84) scale(16.33 -18.79)" gradientUnits="userSpaceOnUse">
      <stop offset=".34" stop-color="#abd8f9" stop-opacity="0"/>
      <stop offset=".39" stop-color="#a8d5f8" stop-opacity="0"/>
      <stop offset=".45" stop-color="#a0ccf6" stop-opacity="0"/>
      <stop offset=".52" stop-color="#94bdf4" stop-opacity=".03"/>
      <stop offset=".58" stop-color="#82a9f0" stop-opacity=".1"/>
      <stop offset=".65" stop-color="#6b8feb" stop-opacity=".23"/>
      <stop offset=".71" stop-color="#4f6fe6" stop-opacity=".48"/>
      <stop offset=".78" stop-color="#2e4adf" stop-opacity=".89"/>
      <stop offset=".79" stop-color="#2742de"/>
    </radialGradient>
    <radialGradient id="Adsız_degrade_27" data-name="Adsız degrade 27" cx="-18.7" cy="583.07" fx="-18.7" fy="583.07" r="3.22" gradientTransform="translate(7847.25 2980.35) rotate(-69.2) scale(12.17 -14.01)" gradientUnits="userSpaceOnUse">
      <stop offset=".23" stop-color="#2742de"/>
      <stop offset=".31" stop-color="#334fe0" stop-opacity=".82"/>
      <stop offset=".48" stop-color="#5273e6" stop-opacity=".45"/>
      <stop offset=".71" stop-color="#84acf1" stop-opacity=".08"/>
      <stop offset=".87" stop-color="#abd8f9" stop-opacity="0"/>
    </radialGradient>
    <radialGradient id="Adsız_degrade_9" data-name="Adsız degrade 9" cx="15.59" cy="588.61" fx="15.59" fy="588.61" r="3.22" gradientTransform="translate(-7218.67 5896.82) rotate(50.8) scale(17.46 -15.7)" gradientUnits="userSpaceOnUse">
      <stop offset=".24" stop-color="#262fea"/>
      <stop offset=".29" stop-color="#3446ea"/>
      <stop offset=".4" stop-color="#5275ec"/>
      <stop offset=".49" stop-color="#6898ed"/>
      <stop offset=".57" stop-color="#75aded"/>
      <stop offset=".62" stop-color="#7ab5ee"/>
    </radialGradient>
    <radialGradient id="Adsız_degrade_10" data-name="Adsız degrade 10" cx="8.79" cy="561.19" fx="8.79" fy="561.19" r="3.22" gradientTransform="translate(-645.71 4473.89) rotate(8.48) scale(11.92 -7.59)" gradientUnits="userSpaceOnUse">
      <stop offset=".16" stop-color="#7ab5ee" stop-opacity="0"/>
      <stop offset=".28" stop-color="#79b4ed" stop-opacity="0"/>
      <stop offset=".39" stop-color="#78b3ed" stop-opacity="0"/>
      <stop offset=".5" stop-color="#77b0ed" stop-opacity=".02"/>
      <stop offset=".6" stop-color="#74aded" stop-opacity=".06"/>
      <stop offset=".7" stop-color="#72a9ed" stop-opacity=".16"/>
      <stop offset=".81" stop-color="#6ea3ed" stop-opacity=".32"/>
      <stop offset=".9" stop-color="#6a9ded" stop-opacity=".6"/>
      <stop offset="1" stop-color="#6697ed"/>
    </radialGradient>
    <radialGradient id="Adsız_degrade_271" data-name="Adsız degrade 27" cx="19.77" cy="618.03" fx="19.77" fy="618.03" r="3.22" gradientTransform="translate(-4129.23 -1746.46) rotate(112.54) scale(11.93 -7.58)" xlink:href="#Adsız_degrade_27"/>
    <radialGradient id="Adsız_degrade_12" data-name="Adsız degrade 12" cx="22.89" cy="612.27" fx="22.89" fy="612.27" r="3.22" gradientTransform="translate(-6650.99 -5447.84) rotate(129.14) scale(8.54 -14.48)" gradientUnits="userSpaceOnUse">
      <stop offset=".24" stop-color="#262fea"/>
      <stop offset=".27" stop-color="#3141ea"/>
      <stop offset=".35" stop-color="#4b6aeb"/>
      <stop offset=".43" stop-color="#5f8aec"/>
      <stop offset=".51" stop-color="#6ea2ed"/>
      <stop offset=".59" stop-color="#76b0ed"/>
      <stop offset=".65" stop-color="#7ab5ee"/>
    </radialGradient>
    <radialGradient id="Adsız_degrade_131" data-name="Adsız degrade 13" cx="25.89" cy="612.6" fx="25.89" fy="612.6" r="3.22" gradientTransform="translate(-6656.6 -5437.51) rotate(129.14) scale(8.54 -14.48)" xlink:href="#Adsız_degrade_13"/>
    <radialGradient id="Adsız_degrade_14" data-name="Adsız degrade 14" cx="28.63" cy="606.47" fx="28.63" fy="606.47" r="3.22" gradientTransform="translate(-8461.53 -4027.02) rotate(115.39) scale(9.31 -15.77)" gradientUnits="userSpaceOnUse">
      <stop offset=".34" stop-color="#504af4"/>
      <stop offset=".39" stop-color="#5d5ef4" stop-opacity=".73"/>
      <stop offset=".48" stop-color="#717ef5" stop-opacity=".4"/>
      <stop offset=".56" stop-color="#8399f6" stop-opacity=".19"/>
      <stop offset=".65" stop-color="#91b0f7" stop-opacity=".08"/>
      <stop offset=".73" stop-color="#9cc1f8" stop-opacity=".02"/>
      <stop offset=".82" stop-color="#a4cef8" stop-opacity="0"/>
      <stop offset=".9" stop-color="#a9d5f8" stop-opacity="0"/>
      <stop offset=".97" stop-color="#abd8f9" stop-opacity="0"/>
    </radialGradient>
    <radialGradient id="Adsız_degrade_15" data-name="Adsız degrade 15" cx="22.81" cy="625.14" fx="22.81" fy="625.14" r="3.22" gradientTransform="translate(-3576.52 -3826.66) rotate(136.59) scale(6.97 -8.84)" gradientUnits="userSpaceOnUse">
      <stop offset=".18" stop-color="#2742e2"/>
      <stop offset=".41" stop-color="#3964eb"/>
      <stop offset=".72" stop-color="#559afa"/>
    </radialGradient>
    <radialGradient id="Adsız_degrade_16" data-name="Adsız degrade 16" cx="40.56" cy="573.05" fx="40.56" fy="573.05" r="3.22" gradientTransform="translate(-2500.89 2164.55) rotate(49.49) scale(6.52 -5.6)" gradientUnits="userSpaceOnUse">
      <stop offset=".13" stop-color="#8d5df7"/>
      <stop offset=".34" stop-color="#6c4cf0"/>
      <stop offset=".72" stop-color="#272be2"/>
    </radialGradient>
    <radialGradient id="Adsız_degrade_17" data-name="Adsız degrade 17" cx="57.84" cy="584.91" fx="57.84" fy="584.91" r="3.22" gradientTransform="translate(-1644.49 876.11) rotate(62.34) scale(4.83 -3.21)" gradientUnits="userSpaceOnUse">
      <stop offset=".02" stop-color="#2752ee"/>
      <stop offset=".09" stop-color="#335eef"/>
      <stop offset=".39" stop-color="#6692f3"/>
      <stop offset=".66" stop-color="#8bb8f6"/>
      <stop offset=".87" stop-color="#a2cff8"/>
      <stop offset="1" stop-color="#abd8f9"/>
    </radialGradient>
    <radialGradient id="Adsız_degrade_18" data-name="Adsız degrade 18" cx="58.3" cy="548.36" fx="58.3" fy="548.36" r="3.22" gradientTransform="translate(-1097.13 1703.46) rotate(33.81) scale(3.94 -3.46)" gradientUnits="userSpaceOnUse">
      <stop offset=".39" stop-color="#a8d5fa" stop-opacity="0"/>
      <stop offset=".45" stop-color="#acd7f9" stop-opacity=".01"/>
      <stop offset=".58" stop-color="#b8def9" stop-opacity=".19"/>
      <stop offset=".78" stop-color="#cbeaf9" stop-opacity=".85"/>
      <stop offset=".81" stop-color="#cfecf9"/>
    </radialGradient>
    <radialGradient id="Adsız_degrade_191" data-name="Adsız degrade 19" cx="64.48" cy="631.2" fx="64.48" fy="631.2" r="3.22" gradientTransform="translate(-1994.99 -212.31) rotate(95.61) scale(3.95 -3.45)" xlink:href="#Adsız_degrade_19"/>
    <radialGradient id="Adsız_degrade_20" data-name="Adsız degrade 20" cx="58.86" cy="529.11" fx="58.86" fy="529.11" r="3.22" gradientTransform="translate(-768.36 1215.15) rotate(33.81) scale(3.96 -2.47)" gradientUnits="userSpaceOnUse">
      <stop offset=".39" stop-color="#504af4"/>
      <stop offset=".39" stop-color="#504bf4" stop-opacity=".98"/>
      <stop offset=".46" stop-color="#656bf5" stop-opacity=".58"/>
      <stop offset=".53" stop-color="#7888f6" stop-opacity=".31"/>
      <stop offset=".6" stop-color="#87a1f7" stop-opacity=".15"/>
      <stop offset=".67" stop-color="#94b4f7" stop-opacity=".06"/>
      <stop offset=".74" stop-color="#9ec4f8" stop-opacity=".02"/>
      <stop offset=".81" stop-color="#a5cff8" stop-opacity="0"/>
      <stop offset=".89" stop-color="#a9d5f8" stop-opacity="0"/>
      <stop offset=".97" stop-color="#abd8f9" stop-opacity="0"/>
    </radialGradient>
    <radialGradient id="Adsız_degrade_21" data-name="Adsız degrade 21" cx="55.01" cy="518.13" fx="55.01" fy="518.13" r="3.22" gradientTransform="translate(-632.76 1350.37) rotate(26.72) scale(3.83 -2.55)" gradientUnits="userSpaceOnUse">
      <stop offset=".23" stop-color="#2654fa"/>
      <stop offset=".36" stop-color="#3563fa"/>
      <stop offset=".62" stop-color="#5c8dfa"/>
      <stop offset=".98" stop-color="#9bcffa"/>
      <stop offset=".99" stop-color="#9dd1fb"/>
    </radialGradient>
    <radialGradient id="Adsız_degrade_22" data-name="Adsız degrade 22" cx="-43.57" cy="571.75" fx="-43.57" fy="571.75" r="3.22" gradientTransform="translate(3761.42 803.18) rotate(-77.84) scale(5.53 -6.37)" gradientUnits="userSpaceOnUse">
      <stop offset=".4" stop-color="#abd8f9" stop-opacity="0"/>
      <stop offset=".55" stop-color="#a9d6f9" stop-opacity="0"/>
      <stop offset=".61" stop-color="#a6d3f9" stop-opacity="0"/>
      <stop offset=".65" stop-color="#9fcdf9" stop-opacity="0"/>
      <stop offset=".68" stop-color="#96c3f9" stop-opacity=".02"/>
      <stop offset=".71" stop-color="#8ab8f9" stop-opacity=".06"/>
      <stop offset=".74" stop-color="#7ca9f9" stop-opacity=".12"/>
      <stop offset=".76" stop-color="#6a98f9" stop-opacity=".23"/>
      <stop offset=".79" stop-color="#5684f9" stop-opacity=".4"/>
      <stop offset=".8" stop-color="#406ef9" stop-opacity=".64"/>
      <stop offset=".82" stop-color="#2755f9" stop-opacity=".97"/>
      <stop offset=".82" stop-color="#2654fa"/>
    </radialGradient>
    <radialGradient id="Adsız_degrade_272" data-name="Adsız degrade 27" cx="-51.67" cy="557.06" fx="-51.67" fy="557.06" r="3.22" gradientTransform="translate(2694.76 1004) rotate(-69.2) scale(4.12 -4.74)" xlink:href="#Adsız_degrade_27"/>
    <radialGradient id="Adsız_degrade_24" data-name="Adsız degrade 24" cx="42.65" cy="572.18" fx="42.65" fy="572.18" r="3.22" gradientTransform="translate(-2160.88 2264.97) rotate(44.11) scale(5.91 -5.32)" gradientUnits="userSpaceOnUse">
      <stop offset=".2" stop-color="#2759f5"/>
      <stop offset=".37" stop-color="#4883f2"/>
      <stop offset=".6" stop-color="#7ac2ee"/>
    </radialGradient>
    <radialGradient id="Adsız_degrade_25" data-name="Adsız degrade 25" cx="-5.32" cy="772.41" fx="-5.32" fy="772.41" r="3.22" gradientTransform="translate(-179.31 -933.32) rotate(166.01) scale(3.16 -1.61)" gradientUnits="userSpaceOnUse">
      <stop offset=".23" stop-color="#6cb4f4"/>
      <stop offset=".28" stop-color="#75b9f4" stop-opacity=".73"/>
      <stop offset=".35" stop-color="#81c0f5" stop-opacity=".43"/>
      <stop offset=".42" stop-color="#8cc6f6" stop-opacity=".23"/>
      <stop offset=".5" stop-color="#96ccf7" stop-opacity=".11"/>
      <stop offset=".58" stop-color="#9dd0f7" stop-opacity=".04"/>
      <stop offset=".67" stop-color="#a3d3f8" stop-opacity=".01"/>
      <stop offset=".76" stop-color="#a7d6f8" stop-opacity="0"/>
      <stop offset=".86" stop-color="#aad7f8" stop-opacity="0"/>
      <stop offset="1" stop-color="#abd8f9" stop-opacity="0"/>
    </radialGradient>
    <radialGradient id="Adsız_degrade_26" data-name="Adsız degrade 26" cx="2.01" cy="460.23" fx="2.01" fy="460.23" r="3.22" gradientTransform="translate(378 1169.56) rotate(-15.98) scale(4.04 -2.05)" gradientUnits="userSpaceOnUse">
      <stop offset="0" stop-color="#2755f6"/>
      <stop offset=".11" stop-color="#2856f5" stop-opacity=".97"/>
      <stop offset=".22" stop-color="#2c5bf5" stop-opacity=".87"/>
      <stop offset=".34" stop-color="#3363f4" stop-opacity=".73"/>
      <stop offset=".45" stop-color="#3c6ef3" stop-opacity=".55"/>
      <stop offset=".56" stop-color="#487cf2" stop-opacity=".35"/>
      <stop offset=".67" stop-color="#578df1" stop-opacity=".17"/>
      <stop offset=".78" stop-color="#69a1ef" stop-opacity=".04"/>
      <stop offset=".88" stop-color="#7ab5ee" stop-opacity="0"/>
    </radialGradient>
    <radialGradient id="Adsız_degrade_273" data-name="Adsız degrade 27" cx="52.43" cy="667.67" fx="52.43" fy="667.67" r="3.22" gradientTransform="translate(-1362.11 -597.14) rotate(112.54) scale(4.04 -2.57)" xlink:href="#Adsız_degrade_27"/>
    <radialGradient id="Adsız_degrade_28" data-name="Adsız degrade 28" cx="50.78" cy="634.8" fx="50.78" fy="634.8" r="3.22" gradientTransform="translate(-2767.55 -2094.73) rotate(126.6) scale(3.47 -5.88)" gradientUnits="userSpaceOnUse">
      <stop offset=".43" stop-color="#33b5fc"/>
      <stop offset=".5" stop-color="#32b0fb"/>
      <stop offset=".58" stop-color="#30a2fb"/>
      <stop offset=".66" stop-color="#2e8afa"/>
      <stop offset=".75" stop-color="#2b6af9"/>
      <stop offset=".81" stop-color="#284ef8"/>
    </radialGradient>
    <radialGradient id="Adsız_degrade_29" data-name="Adsız degrade 29" cx="56.42" cy="645.26" fx="56.42" fy="645.26" r="3.22" gradientTransform="translate(-2217.61 -1847.97) rotate(129.14) scale(2.89 -4.91)" gradientUnits="userSpaceOnUse">
      <stop offset=".4" stop-color="#2cc0fc"/>
      <stop offset=".52" stop-color="#4bc5fb" stop-opacity=".56"/>
      <stop offset=".68" stop-color="#74cdfa" stop-opacity=".19"/>
      <stop offset=".82" stop-color="#91d3f9" stop-opacity=".04"/>
      <stop offset=".92" stop-color="#a4d6f9" stop-opacity="0"/>
      <stop offset=".97" stop-color="#abd8f9" stop-opacity="0"/>
    </radialGradient>
    <radialGradient id="Adsız_degrade_30" data-name="Adsız degrade 30" cx="68.85" cy="680.18" fx="68.85" fy="680.18" r="3.22" gradientTransform="translate(-1241.66 -615.42) rotate(115.39) scale(3.15 -2.4)" gradientUnits="userSpaceOnUse">
      <stop offset=".34" stop-color="#2680fb"/>
      <stop offset=".37" stop-color="#398dfa" stop-opacity=".72"/>
      <stop offset=".42" stop-color="#549efa" stop-opacity=".43"/>
      <stop offset=".46" stop-color="#6badf9" stop-opacity=".23"/>
      <stop offset=".51" stop-color="#7ebaf9" stop-opacity=".11"/>
      <stop offset=".56" stop-color="#8ec5f9" stop-opacity=".04"/>
      <stop offset=".61" stop-color="#9bcdf9" stop-opacity=".01"/>
      <stop offset=".67" stop-color="#a4d3f9" stop-opacity="0"/>
      <stop offset=".73" stop-color="#a9d6f9" stop-opacity="0"/>
      <stop offset=".81" stop-color="#abd8f9" stop-opacity="0"/>
    </radialGradient>
    <radialGradient id="Adsız_degrade_31" data-name="Adsız degrade 31" cx="-16.27" cy="475.59" fx="-16.27" fy="475.59" r="3.22" gradientTransform="translate(727.35 1185.39) rotate(-29.89) scale(3.5 -2.3)" gradientUnits="userSpaceOnUse">
      <stop offset=".04" stop-color="#5cc2fd"/>
      <stop offset=".05" stop-color="#5ec3fd"/>
      <stop offset=".23" stop-color="#88d5fd"/>
      <stop offset=".39" stop-color="#a7e2fe"/>
      <stop offset=".52" stop-color="#baeafe"/>
      <stop offset=".62" stop-color="#c1edff"/>
    </radialGradient>
    <radialGradient id="Adsız_degrade_32" data-name="Adsız degrade 32" cx="118.93" cy="541.4" fx="118.93" fy="541.4" r="3.22" gradientTransform="translate(-810.67 727.58) rotate(49.49) scale(2.21 -1.9)" gradientUnits="userSpaceOnUse">
      <stop offset=".28" stop-color="#54b9fe"/>
      <stop offset=".87" stop-color="#67ccfd"/>
    </radialGradient>
  </defs>
  <path class="st32" d="M410.79,275.07h8.05l16.34,43.64h-8.35l-3.42-9.69h-17.67l-3.36,9.69h-7.81l16.23-43.64ZM407.96,302.64h13.16l-6.61-18.72-6.55,18.72Z"/>
  <path class="st32" d="M446.56,318.71h-7.63v-43.64h7.63v43.64Z"/>
  <path class="st32" d="M506.36,304.21c-.92,4.9-3.02,8.67-6.31,11.32-3.29,2.65-7.45,3.97-12.5,3.97-3.21,0-6.05-.54-8.53-1.63-2.48-1.08-4.59-2.62-6.31-4.61-1.72-1.99-3.04-4.38-3.94-7.19-.9-2.81-1.35-5.92-1.35-9.33s.47-6.5,1.41-9.27c.94-2.77,2.3-5.14,4.09-7.1,1.78-1.97,3.94-3.47,6.46-4.51,2.53-1.04,5.37-1.57,8.53-1.57,4.85,0,8.89,1.32,12.14,3.97,3.25,2.65,5.31,6.42,6.19,11.32h-7.33c-.68-2.97-2.01-5.22-4-6.74-1.98-1.52-4.39-2.29-7.24-2.29-1.72,0-3.34.35-4.83,1.05-1.51.7-2.82,1.74-3.94,3.1-1.12,1.36-2,3.05-2.64,5.06-.64,2.01-.96,4.33-.96,6.98s.31,5,.93,7.04c.62,2.05,1.49,3.77,2.61,5.18,1.12,1.4,2.43,2.47,3.91,3.19,1.48.72,3.1,1.08,4.87,1.08,2.96,0,5.44-.75,7.42-2.26,1.98-1.5,3.31-3.76,4-6.77h7.33Z"/>
  <path class="st32" d="M525.3,285.61c2.04,0,4,.34,5.89,1.02,1.88.68,3.55,1.72,5.02,3.1,1.46,1.38,2.63,3.14,3.51,5.27.88,2.13,1.32,4.66,1.32,7.58s-.44,5.46-1.32,7.58c-.88,2.13-2.05,3.88-3.51,5.27-1.46,1.38-3.14,2.41-5.02,3.07-1.89.66-3.85.99-5.89.99s-4.01-.33-5.89-.99c-1.89-.66-3.55-1.69-5.02-3.07-1.46-1.38-2.63-3.14-3.52-5.27-.88-2.13-1.32-4.66-1.32-7.58s.44-5.46,1.32-7.58c.88-2.13,2.05-3.88,3.52-5.27s3.13-2.42,5.02-3.1c1.88-.68,3.85-1.02,5.89-1.02ZM525.3,313.66c1.2,0,2.3-.23,3.3-.69,1-.46,1.89-1.14,2.64-2.05.76-.9,1.35-2.05,1.77-3.43.42-1.38.63-3.02.63-4.91s-.21-3.47-.63-4.88c-.42-1.4-1.01-2.57-1.77-3.49-.76-.92-1.64-1.62-2.64-2.08-1-.46-2.1-.69-3.3-.69s-2.3.23-3.31.69c-1,.46-1.88,1.15-2.64,2.08-.76.92-1.35,2.09-1.77,3.49-.42,1.4-.63,3.03-.63,4.88s.21,3.52.63,4.91c.42,1.38,1.01,2.53,1.77,3.43.76.9,1.64,1.59,2.64,2.05,1,.46,2.1.69,3.31.69Z"/>
  <path class="st32" d="M552.8,318.72h-7.15v-32.39h7.15v4.51c.92-1.69,2.17-2.98,3.76-3.88,1.58-.9,3.45-1.35,5.62-1.35,2.52,0,4.54.5,6.04,1.51,1.5,1,2.63,2.41,3.4,4.21,1.4-2.05,3-3.51,4.81-4.39,1.8-.88,3.71-1.32,5.71-1.32s3.55.3,4.9.9c1.34.6,2.43,1.47,3.27,2.59.84,1.12,1.45,2.47,1.83,4.03.38,1.56.57,3.31.57,5.24v20.35h-7.15v-18.6c0-1.08-.05-2.15-.15-3.19-.1-1.04-.34-1.98-.72-2.8-.38-.82-.95-1.47-1.71-1.96-.76-.48-1.8-.72-3.12-.72s-2.44.25-3.34.75c-.9.5-1.63,1.19-2.19,2.08-.56.88-.96,1.95-1.2,3.19-.24,1.24-.36,2.59-.36,4.03v17.22h-7.15v-18.6c0-1.08-.05-2.15-.15-3.19-.1-1.04-.34-1.98-.72-2.8-.38-.82-.95-1.47-1.71-1.96-.76-.48-1.8-.72-3.12-.72s-2.44.25-3.34.75c-.9.5-1.63,1.19-2.19,2.08-.56.88-.96,1.95-1.2,3.19-.24,1.24-.36,2.59-.36,4.03v17.22Z"/>
  <path class="st32" d="M605.96,286.33v4.33c.96-1.6,2.26-2.85,3.91-3.73,1.64-.88,3.54-1.32,5.71-1.32,1.96,0,3.8.39,5.5,1.17,1.7.78,3.17,1.92,4.42,3.4,1.24,1.48,2.22,3.27,2.92,5.36.7,2.09,1.05,4.42,1.05,6.98s-.35,4.96-1.05,7.04c-.7,2.09-1.68,3.87-2.92,5.36-1.24,1.49-2.71,2.62-4.42,3.4-1.7.78-3.54,1.17-5.5,1.17-2.16,0-4.07-.44-5.71-1.32-1.64-.88-2.94-2.13-3.91-3.73v14.81h-7.15v-42.92h7.15ZM605.66,302.52c0,1.89.21,3.52.63,4.91.42,1.38,1.01,2.54,1.77,3.46.76.92,1.65,1.62,2.67,2.08,1.02.46,2.11.69,3.27.69,2.53,0,4.49-.99,5.89-2.98,1.4-1.99,2.1-4.7,2.1-8.16s-.7-6.11-2.1-8.1c-1.4-1.99-3.36-2.98-5.89-2.98-1.16,0-2.25.23-3.27.69-1.02.46-1.91,1.14-2.67,2.05-.76.9-1.35,2.06-1.77,3.46-.42,1.41-.63,3.03-.63,4.88Z"/>
  <path class="st32" d="M647.15,285.37c2,0,3.85.24,5.56.72,1.7.48,3.17,1.26,4.42,2.35,1.24,1.08,2.19,2.51,2.86,4.27.66,1.77.97,3.93.93,6.5,0,.4,0,.93-.03,1.59-.02.66-.03,1.38-.03,2.14s0,1.56-.03,2.38c-.02.82-.03,1.6-.03,2.32,0,2.05.08,4.06.24,6.05.16,1.99.4,3.66.72,5.03h-6.55c-.12-.68-.23-1.34-.33-1.99-.1-.64-.19-1.52-.27-2.65-1,1.81-2.42,3.16-4.27,4.06-1.84.9-3.97,1.35-6.37,1.35-1.76,0-3.37-.23-4.84-.69-1.46-.46-2.72-1.11-3.79-1.96-1.06-.84-1.89-1.86-2.46-3.04-.58-1.18-.87-2.52-.87-4,0-2.01.58-3.67,1.74-5,1.16-1.32,2.73-2.41,4.72-3.25,1.98-.84,4.29-1.48,6.91-1.93,2.62-.44,5.42-.82,8.38-1.14v-.78c0-1.36-.18-2.5-.54-3.4-.36-.9-.85-1.63-1.47-2.17-.62-.54-1.35-.92-2.19-1.14-.84-.22-1.76-.33-2.76-.33-1.84,0-3.39.48-4.63,1.44-1.24.96-1.9,2.43-1.98,4.39h-7.03c.12-1.65.54-3.15,1.26-4.51.72-1.36,1.69-2.54,2.92-3.52,1.22-.98,2.66-1.75,4.33-2.29,1.66-.54,3.49-.81,5.5-.81ZM653.94,303.49c-2.56.24-4.75.52-6.55.84-1.8.32-3.29.72-4.45,1.2-1.16.48-2.01,1.05-2.55,1.72-.54.66-.81,1.46-.81,2.38,0,1.41.54,2.51,1.62,3.31,1.08.8,2.52,1.2,4.33,1.2,2.64,0,4.71-.73,6.19-2.2,1.48-1.46,2.22-3.9,2.22-7.31v-1.14Z"/>
  <path class="st32" d="M673.97,290.84c.92-1.69,2.21-2.98,3.88-3.88s3.64-1.35,5.92-1.35c1.97,0,3.64.3,5.02.9,1.38.6,2.52,1.47,3.4,2.59.88,1.12,1.53,2.47,1.95,4.03s.63,3.31.63,5.24v20.35h-7.15v-18.6c0-1.08-.06-2.15-.18-3.19-.12-1.04-.39-1.98-.81-2.8-.42-.82-1.04-1.47-1.86-1.96-.82-.48-1.91-.72-3.27-.72s-2.53.25-3.49.75c-.96.5-1.74,1.19-2.35,2.08-.6.88-1.03,1.95-1.29,3.19-.26,1.24-.39,2.59-.39,4.03v17.22h-7.15v-32.39h7.15v4.51Z"/>
  <path class="st32" d="M708.03,275.07v7.22h-7.15v-7.22h7.15ZM708.03,286.33v32.39h-7.15v-32.39h7.15Z"/>
  <path class="st32" d="M728.45,285.61c2.05,0,4.01.34,5.89,1.02,1.88.68,3.55,1.72,5.02,3.1,1.46,1.38,2.63,3.14,3.52,5.27.88,2.13,1.32,4.66,1.32,7.58s-.44,5.46-1.32,7.58c-.88,2.13-2.05,3.88-3.52,5.27-1.46,1.38-3.14,2.41-5.02,3.07-1.88.66-3.84.99-5.89.99s-4-.33-5.89-.99c-1.89-.66-3.56-1.69-5.02-3.07-1.46-1.38-2.63-3.14-3.52-5.27-.88-2.13-1.32-4.66-1.32-7.58s.44-5.46,1.32-7.58c.88-2.13,2.05-3.88,3.52-5.27,1.46-1.38,3.13-2.42,5.02-3.1,1.88-.68,3.84-1.02,5.89-1.02ZM728.45,313.66c1.2,0,2.3-.23,3.31-.69,1-.46,1.88-1.14,2.64-2.05.76-.9,1.35-2.05,1.77-3.43.42-1.38.63-3.02.63-4.91s-.21-3.47-.63-4.88c-.42-1.4-1.01-2.57-1.77-3.49-.76-.92-1.64-1.62-2.64-2.08-1-.46-2.1-.69-3.31-.69s-2.3.23-3.3.69c-1,.46-1.89,1.15-2.64,2.08-.76.92-1.35,2.09-1.77,3.49-.42,1.4-.63,3.03-.63,4.88s.21,3.52.63,4.91c.42,1.38,1.01,2.53,1.77,3.43.76.9,1.64,1.59,2.64,2.05,1,.46,2.1.69,3.3.69Z"/>
  <path class="st32" d="M755.96,290.84c.92-1.69,2.21-2.98,3.88-3.88s3.63-1.35,5.92-1.35c1.96,0,3.63.3,5.02.9,1.38.6,2.51,1.47,3.4,2.59.88,1.12,1.53,2.47,1.95,4.03s.63,3.31.63,5.24v20.35h-7.15v-18.6c0-1.08-.06-2.15-.18-3.19-.12-1.04-.39-1.98-.81-2.8-.42-.82-1.04-1.47-1.87-1.96-.82-.48-1.91-.72-3.27-.72s-2.52.25-3.48.75c-.96.5-1.74,1.19-2.35,2.08-.6.88-1.03,1.95-1.29,3.19-.26,1.24-.39,2.59-.39,4.03v17.22h-7.15v-32.39h7.15v4.51Z"/>
  <path class="st34" d="M216.82,318.71h-35.28c-2.48,0-4.69-1.48-5.63-3.77-.95-2.29-.43-4.9,1.32-6.66l24.44-24.48h-17.51c-4.81,0-8.71-3.91-8.71-8.73h32.54c2.47,0,4.69,1.48,5.63,3.77.95,2.29.43,4.9-1.32,6.66l-24.44,24.48h20.26c4.81,0,8.71,3.91,8.71,8.73ZM372.76,291.44c0-9.38-7.62-17.02-16.99-17.02-5.01,0-9.52,2.19-12.63,5.65-3.11-3.47-7.62-5.65-12.63-5.65-9.37,0-16.99,7.63-16.99,17.02v27.27c4.81,0,8.71-3.91,8.71-8.73v-18.54c0-4.57,3.71-8.29,8.28-8.29s8.28,3.72,8.28,8.29v18.54c0,4.82,3.9,8.73,8.71,8.73v-27.27c0-4.57,3.71-8.29,8.28-8.29s8.28,3.72,8.28,8.29v18.54c0,4.82,3.9,8.73,8.71,8.73v-27.27ZM309.17,296.9c0,12.41-10.04,22.47-22.43,22.47s-22.43-10.06-22.43-22.47,10.04-22.47,22.43-22.47,22.43,10.06,22.43,22.47ZM300.45,296.9c0-7.59-6.14-13.74-13.72-13.74s-13.72,6.15-13.72,13.74,6.14,13.74,13.72,13.74,13.72-6.15,13.72-13.74ZM260.82,296.9c0,12.41-10.04,22.47-22.43,22.47s-22.43-10.06-22.43-22.47,10.04-22.47,22.43-22.47,22.43,10.06,22.43,22.47ZM252.1,296.9c0-7.59-6.14-13.74-13.72-13.74s-13.72,6.15-13.72,13.74,6.14,13.74,13.72,13.74,13.72-6.15,13.72-13.74Z"/>
  <path class="st33" d="M121.03,312.04c-2.96,3.02-7.1,9.62-9.35,15.29-2.88,7.26-4.2,11.08-6.1,11.08-1.12,0-2.72-3.05-3.76-5.62-1.07-2.65-2.24-5.65-3.36-8.02-1.15-2.42-2.39-4.84-3.62-6.78-1.6-2.53-3.18-4.36-4.42-5.72-2.33-2.54-7.45-5.94-12.73-8.43-6.55-3.08-13.43-5.32-13.43-7.31,0-2.13,8.04-4.62,13.4-7.13,5.27-2.46,10.23-5.77,12.7-8.33,3.25-3.38,6.01-7.47,8.05-11.67.81-1.67,2.27-5.19,3.65-8.3,1.39-3.16,2.7-5.9,3.99-5.9,1.64,0,3.55,4.74,4.48,6.97,1.24,2.95,2.7,6.53,5.57,11.51,2.89,5.04,6.45,8.63,10.17,11.21,3.34,2.33,9.31,5.23,16.38,8.19,3.45,1.44,4.79,2.59,4.79,3.6,0,1.13-1.62,2-4.03,3.03-3.28,1.4-7.96,3.16-11.54,4.91-5.18,2.53-8.56,5.08-10.85,7.41Z"/>
  <path class="st26" d="M142.66,293.09c-7.08-2.96-13.04-5.86-16.38-8.19-3.71-2.58-7.27-6.18-10.17-11.21-2.86-4.98-4.33-8.57-5.57-11.51-.93-2.21-2.81-6.89-4.44-6.97v40.84l41.35.63c-.02-1-1.37-2.14-4.79-3.58Z"/>
  <path class="st27" d="M142.66,293.13c-7.08-2.96-13.04-5.86-16.38-8.19-3.71-2.58-7.27-6.18-10.17-11.21-2.86-4.98-4.33-8.57-5.57-11.51-.93-2.21-2.81-6.89-4.44-6.97v40.84l41.35.63c-.02-1-1.37-2.14-4.79-3.58Z"/>
  <path class="st13" d="M142.66,293.13c-7.08-2.96-13.04-5.86-16.38-8.19-3.71-2.58-7.27-6.18-10.17-11.21-2.86-4.98-4.33-8.57-5.57-11.51-.93-2.21-2.81-6.89-4.44-6.97v40.84l41.35.63c-.02-1-1.37-2.14-4.79-3.58Z"/>
  <path class="st15" d="M142.66,293.09c-7.08-2.96-13.04-5.86-16.38-8.19-3.71-2.58-7.27-6.18-10.17-11.21-2.86-4.98-4.33-8.57-5.57-11.51-.93-2.21-2.81-6.89-4.44-6.97v40.84l41.35.63c-.02-1-1.37-2.14-4.79-3.58Z"/>
  <path class="st29" d="M142.66,293.09c-7.08-2.96-13.04-5.86-16.38-8.19-3.71-2.58-7.27-6.18-10.17-11.21-2.86-4.98-4.33-8.57-5.57-11.51-.93-2.21-2.81-6.89-4.44-6.97v40.84l41.35.63c-.02-1-1.37-2.14-4.79-3.58Z"/>
  <path class="st31" d="M105.74,338.4c1.82-.21,3.15-4.01,5.95-11.07,2.25-5.66,6.39-12.27,9.35-15.29,2.29-2.33,5.67-4.88,10.85-7.41,3.57-1.74,8.26-3.51,11.54-4.91,2.41-1.03,4.03-1.9,4.03-3.03,0,0,0-.01,0-.02l-41.71-.63v42.36Z"/>
  <path class="st30" d="M105.74,338.4c1.82-.21,3.15-4.01,5.95-11.07,2.25-5.66,6.39-12.27,9.35-15.29,2.29-2.33,5.67-4.88,10.85-7.41,3.57-1.74,8.26-3.51,11.54-4.91,2.41-1.03,4.03-1.9,4.03-3.03,0,0,0-.01,0-.02l-41.71-.63v42.36Z"/>
  <path class="st10" d="M105.74,338.4c1.82-.21,3.15-4.01,5.95-11.07,2.25-5.66,6.39-12.27,9.35-15.29,2.29-2.33,5.67-4.88,10.85-7.41,3.57-1.74,8.26-3.51,11.54-4.91,2.41-1.03,4.03-1.9,4.03-3.03,0,0,0-.01,0-.02l-41.71-.63v42.36Z"/>
  <path class="st28" d="M106.11,255.2s-.03,0-.04,0c-1.29,0-2.59,2.75-3.99,5.9-1.37,3.12-2.84,6.63-3.65,8.3-2.04,4.2-4.8,8.29-8.05,11.67-2.47,2.57-7.44,5.87-12.7,8.33-5.36,2.51-13.4,4.99-13.4,7.13,0,.02,0,.04,0,.05l41.84.11v-41.49Z"/>
  <path class="st5" d="M106.11,255.2s-.03,0-.04,0c-1.29,0-2.59,2.75-3.99,5.9-1.37,3.12-2.84,6.63-3.65,8.3-2.04,4.2-4.8,8.29-8.05,11.67-2.47,2.57-7.44,5.87-12.7,8.33-5.36,2.51-13.4,4.99-13.4,7.13,0,.02,0,.04,0,.05l41.84.11v-41.49Z"/>
  <path class="st2" d="M106.11,255.2s-.03,0-.04,0c-1.29,0-2.59,2.75-3.99,5.9-1.37,3.12-2.84,6.63-3.65,8.3-2.04,4.2-4.8,8.29-8.05,11.67-2.47,2.57-7.44,5.87-12.7,8.33-5.36,2.51-13.4,4.99-13.4,7.13,0,.02,0,.04,0,.05l41.84.11v-41.49Z"/>
  <path class="st16" d="M105.74,296.7l-41.47-.11c.12,1.98,6.94,4.2,13.43,7.26,5.28,2.49,10.4,5.88,12.73,8.43,1.24,1.36,2.82,3.19,4.42,5.72,1.23,1.93,2.47,4.36,3.62,6.78,1.12,2.36,2.29,5.36,3.36,8.02,1.04,2.58,2.64,5.62,3.76,5.62.05,0,.11,0,.16,0v-41.7Z"/>
  <path class="st4" d="M105.74,296.7l-41.47-.11c.12,1.98,6.94,4.2,13.43,7.26,5.28,2.49,10.4,5.88,12.73,8.43,1.24,1.36,2.82,3.19,4.42,5.72,1.23,1.93,2.47,4.36,3.62,6.78,1.12,2.36,2.29,5.36,3.36,8.02,1.04,2.58,2.64,5.62,3.76,5.62.05,0,.11,0,.16,0v-41.7Z"/>
  <path class="st18" d="M105.74,296.7l-41.47-.11c.12,1.98,6.94,4.2,13.43,7.26,5.28,2.49,10.4,5.88,12.73,8.43,1.24,1.36,2.82,3.19,4.42,5.72,1.23,1.93,2.47,4.36,3.62,6.78,1.12,2.36,2.29,5.36,3.36,8.02,1.04,2.58,2.64,5.62,3.76,5.62.05,0,.11,0,.16,0v-41.7Z"/>
  <path class="st17" d="M89.97,299.44c2.77,1.83,5.62,4.3,7.85,6.61,4.11,4.26,7.48,9.94,7.92,10.72l-.15-20.13h-20.04c.33.2,2.21,1.33,4.43,2.8Z"/>
  <path class="st12" d="M121.56,293.47c-2.29-1.61-4.98-3.78-6.9-5.76-2-2.05-3.93-4.45-5.4-6.53-1.92-2.73-3.11-4.9-3.16-5v20.13h19.95c-.47-.26-2.3-1.31-4.49-2.84Z"/>
  <path class="st11" d="M152.08,264.56c-2.4-1-4.42-1.99-5.55-2.77-1.26-.88-2.46-2.09-3.44-3.8-.97-1.69-1.47-2.9-1.89-3.9-.31-.75-.95-2.33-1.5-2.36v13.83l14.01.21c0-.34-.46-.73-1.62-1.21Z"/>
  <path class="st14" d="M152.08,264.57c-2.4-1-4.42-1.99-5.55-2.77-1.26-.88-2.46-2.09-3.44-3.8-.97-1.69-1.47-2.9-1.89-3.9-.31-.75-.95-2.33-1.5-2.36v13.83l14.01.21c0-.34-.46-.73-1.62-1.21Z"/>
  <path class="st3" d="M152.08,264.57c-2.4-1-4.42-1.99-5.55-2.77-1.26-.88-2.46-2.09-3.44-3.8-.97-1.69-1.47-2.9-1.89-3.9-.31-.75-.95-2.33-1.5-2.36v13.83l14.01.21c0-.34-.46-.73-1.62-1.21Z"/>
  <path class="st7" d="M152.08,264.56c-2.4-1-4.42-1.99-5.55-2.77-1.26-.88-2.46-2.09-3.44-3.8-.97-1.69-1.47-2.9-1.89-3.9-.31-.75-.95-2.33-1.5-2.36v13.83l14.01.21c0-.34-.46-.73-1.62-1.21Z"/>
  <path class="st6" d="M139.57,279.91c.62-.07,1.07-1.36,2.01-3.75.76-1.92,2.16-4.16,3.17-5.18.77-.79,1.92-1.65,3.67-2.51,1.21-.59,2.8-1.19,3.91-1.66.82-.35,1.37-.64,1.37-1.03h0s-14.13-.22-14.13-.22v14.35Z"/>
  <path class="st21" d="M139.57,279.91c.62-.07,1.07-1.36,2.01-3.75.76-1.92,2.16-4.16,3.17-5.18.77-.79,1.92-1.65,3.67-2.51,1.21-.59,2.8-1.19,3.91-1.66.82-.35,1.37-.64,1.37-1.03h0s-14.13-.22-14.13-.22v14.35Z"/>
  <path class="st1" d="M139.57,279.91c.62-.07,1.07-1.36,2.01-3.75.76-1.92,2.16-4.16,3.17-5.18.77-.79,1.92-1.65,3.67-2.51,1.21-.59,2.8-1.19,3.91-1.66.82-.35,1.37-.64,1.37-1.03h0s-14.13-.22-14.13-.22v14.35Z"/>
  <path class="st20" d="M139.7,251.73s0,0-.01,0c-.44,0-.88.93-1.35,2-.47,1.06-.96,2.25-1.24,2.81-.69,1.42-1.63,2.81-2.73,3.95-.84.87-2.52,1.99-4.3,2.82-1.81.85-4.54,1.69-4.54,2.41,0,0,0,.01,0,.02l14.17.04v-14.06Z"/>
  <path class="st19" d="M139.7,251.73s0,0-.01,0c-.44,0-.88.93-1.35,2-.47,1.06-.96,2.25-1.24,2.81-.69,1.42-1.63,2.81-2.73,3.95-.84.87-2.52,1.99-4.3,2.82-1.81.85-4.54,1.69-4.54,2.41,0,0,0,.01,0,.02l14.17.04v-14.06Z"/>
  <path class="st22" d="M139.7,251.73s0,0-.01,0c-.44,0-.88.93-1.35,2-.47,1.06-.96,2.25-1.24,2.81-.69,1.42-1.63,2.81-2.73,3.95-.84.87-2.52,1.99-4.3,2.82-1.81.85-4.54,1.69-4.54,2.41,0,0,0,.01,0,.02l14.17.04v-14.06Z"/>
  <path class="st0" d="M139.7,251.73s0,0-.01,0c-.44,0-.88.93-1.35,2-.47,1.06-.96,2.25-1.24,2.81-.69,1.42-1.63,2.81-2.73,3.95-.84.87-2.52,1.99-4.3,2.82-1.81.85-4.54,1.69-4.54,2.41,0,0,0,.01,0,.02l14.17.04v-14.06Z"/>
  <path class="st9" d="M139.57,265.78l-14.05-.04c.04.67,2.35,1.42,4.55,2.46,1.79.84,3.52,1.99,4.31,2.86.42.46.95,1.08,1.5,1.94.42.66.84,1.48,1.23,2.3.38.8.78,1.82,1.14,2.72.35.87.89,1.9,1.27,1.9.02,0,.04,0,.05,0v-14.13Z"/>
  <path class="st8" d="M139.57,265.78l-14.05-.04c.04.67,2.35,1.42,4.55,2.46,1.79.84,3.52,1.99,4.31,2.86.42.46.95,1.08,1.5,1.94.42.66.84,1.48,1.23,2.3.38.8.78,1.82,1.14,2.72.35.87.89,1.9,1.27,1.9.02,0,.04,0,.05,0v-14.13Z"/>
  <path class="st24" d="M139.57,265.78l-14.05-.04c.04.67,2.35,1.42,4.55,2.46,1.79.84,3.52,1.99,4.31,2.86.42.46.95,1.08,1.5,1.94.42.66.84,1.48,1.23,2.3.38.8.78,1.82,1.14,2.72.35.87.89,1.9,1.27,1.9.02,0,.04,0,.05,0v-14.13Z"/>
  <path class="st23" d="M134.23,266.71c.94.62,1.9,1.45,2.66,2.24,1.39,1.44,2.53,3.37,2.68,3.63l-.05-6.82h-6.79c.11.07.75.45,1.5.95Z"/>
  <path class="st25" d="M144.93,264.69c-.78-.55-1.69-1.28-2.34-1.95-.68-.69-1.33-1.51-1.83-2.21-.65-.92-1.05-1.66-1.07-1.69v6.82h6.76c-.16-.09-.78-.44-1.52-.96Z"/>
</svg>