<svg width="175" height="79" viewBox="0 0 175 79" fill="none" xmlns="http://www.w3.org/2000/svg">
<path d="M7.60287 54.2207H11.2843L18.757 74.1784H14.9384L13.3743 69.7469H5.29337L3.75677 74.1784H0.185059L7.60744 54.2207H7.60287ZM6.30864 66.8292H12.327L9.30412 58.268L6.30864 66.8292Z" fill="#0D213F"/>
<path d="M23.9611 74.1784H20.4717V54.2207H23.9611V74.1784Z" fill="#0D213F"/>
<path d="M51.3092 67.5484C50.8885 69.7893 49.9281 71.5134 48.4235 72.7253C46.9189 73.9372 45.0164 74.5409 42.7069 74.5409C41.2389 74.5409 39.9401 74.2939 38.8059 73.7955C37.6718 73.3015 36.7068 72.5973 35.9202 71.6872C35.1336 70.7771 34.5299 69.6841 34.1184 68.399C33.7068 67.1139 33.501 65.6917 33.501 64.1322C33.501 62.5727 33.7159 61.1596 34.1458 59.8928C34.5757 58.626 35.1977 57.5421 36.0163 56.6458C36.8303 55.7448 37.8181 55.0588 38.9706 54.5832C40.1276 54.1076 41.4264 53.8652 42.8716 53.8652C45.0896 53.8652 46.9372 54.4689 48.4235 55.6808C49.9098 56.8927 50.8519 58.6168 51.2543 60.8577H47.9021C47.5912 59.4995 46.9829 58.4705 46.0728 57.7754C45.1673 57.0802 44.0652 56.7281 42.7618 56.7281C41.9752 56.7281 41.2343 56.8882 40.5529 57.2083C39.8624 57.5284 39.2633 58.004 38.7511 58.626C38.2389 59.248 37.8364 60.0208 37.5437 60.9401C37.251 61.8593 37.1047 62.9203 37.1047 64.1322C37.1047 65.3441 37.2465 66.4188 37.53 67.3518C37.8136 68.2893 38.2114 69.0759 38.7236 69.7207C39.2358 70.3609 39.8349 70.8503 40.5118 71.1796C41.1886 71.5088 41.9295 71.6735 42.7389 71.6735C44.0926 71.6735 45.2268 71.3305 46.1323 70.6399C47.0378 69.9539 47.646 68.9204 47.9616 67.5438H51.3138L51.3092 67.5484Z" fill="#0D213F"/>
<path d="M59.9709 59.043C60.9039 59.043 61.8002 59.1985 62.6646 59.5094C63.5244 59.8204 64.2881 60.2961 64.9604 60.9272C65.6281 61.5583 66.1631 62.3632 66.5656 63.3373C66.968 64.3114 67.1692 65.4684 67.1692 66.8038C67.1692 68.1392 66.968 69.3008 66.5656 70.2703C66.1631 71.2444 65.6281 72.0447 64.9604 72.6804C64.2927 73.3115 63.5244 73.7826 62.6646 74.0844C61.8002 74.3862 60.9039 74.5371 59.9709 74.5371C59.038 74.5371 58.1371 74.3862 57.2773 74.0844C56.4129 73.7826 55.6538 73.3115 54.9815 72.6804C54.3138 72.0493 53.7788 71.2444 53.3717 70.2703C52.9693 69.2962 52.7681 68.1392 52.7681 66.8038C52.7681 65.4684 52.9693 64.3068 53.3717 63.3373C53.7742 62.3632 54.3093 61.5628 54.9815 60.9272C55.6538 60.2915 56.4129 59.8204 57.2773 59.5094C58.1371 59.1985 59.038 59.043 59.9709 59.043ZM59.9709 71.8709C60.5197 71.8709 61.0228 71.7658 61.4801 71.5554C61.9374 71.345 62.3445 71.034 62.6875 70.6179C63.035 70.2063 63.3048 69.6804 63.4969 69.0492C63.689 68.4181 63.785 67.6681 63.785 66.8038C63.785 65.9394 63.689 65.2169 63.4969 64.572C63.3048 63.9318 63.035 63.3967 62.6875 62.976C62.3399 62.5552 61.9374 62.2351 61.4801 62.0247C61.0228 61.8144 60.5197 61.7092 59.9709 61.7092C59.4221 61.7092 58.9191 61.8144 58.4572 62.0247C57.9999 62.2351 57.5974 62.5507 57.2498 62.976C56.9023 63.3967 56.6325 63.9318 56.4404 64.572C56.2483 65.2123 56.1523 65.9577 56.1523 66.8038C56.1523 67.6498 56.2483 68.4136 56.4404 69.0492C56.6325 69.6804 56.9023 70.2063 57.2498 70.6179C57.5974 71.0295 57.9999 71.345 58.4572 71.5554C58.9145 71.7658 59.4176 71.8709 59.9709 71.8709Z" fill="#0D213F"/>
<path d="M72.5477 74.185H69.2778V59.3722H72.5477V61.4348C72.9684 60.6619 73.5401 60.072 74.2672 59.6604C74.9898 59.2488 75.845 59.043 76.8374 59.043C77.9899 59.043 78.9136 59.2716 79.5996 59.7335C80.2856 60.1909 80.8024 60.8357 81.1546 61.6589C81.7948 60.7214 82.5265 60.0537 83.3543 59.6512C84.1775 59.2488 85.051 59.0475 85.9656 59.0475C86.8803 59.0475 87.5891 59.1847 88.2065 59.4591C88.8193 59.7335 89.3178 60.1314 89.702 60.6436C90.0861 61.1558 90.3651 61.7732 90.5389 62.4866C90.7127 63.2001 90.7996 64.0004 90.7996 64.883V74.1896H87.5297V65.6833C87.5297 65.1894 87.5068 64.7001 87.4611 64.2245C87.4153 63.7489 87.3056 63.319 87.1318 62.944C86.958 62.569 86.6973 62.2717 86.3498 62.0476C86.0022 61.8281 85.5266 61.7183 84.9229 61.7183C84.3192 61.7183 83.8071 61.8327 83.3955 62.0613C82.9839 62.29 82.65 62.6055 82.3939 63.0126C82.1378 63.415 81.9549 63.9043 81.8451 64.4714C81.7354 65.0385 81.6805 65.6559 81.6805 66.3145V74.1896H78.4106V65.6833C78.4106 65.1894 78.3877 64.7001 78.342 64.2245C78.2963 63.7489 78.1865 63.319 78.0127 62.944C77.8389 62.569 77.5783 62.2717 77.2307 62.0476C76.8831 61.8281 76.4075 61.7183 75.8038 61.7183C75.2002 61.7183 74.688 61.8327 74.2764 62.0613C73.8648 62.29 73.531 62.6055 73.2748 63.0126C73.0187 63.415 72.8358 63.9043 72.7261 64.4714C72.6163 65.0385 72.5614 65.6559 72.5614 66.3145V74.1896L72.5477 74.185Z" fill="#0D213F"/>
<path d="M96.8588 59.3722V61.3525C97.2978 60.6207 97.8923 60.0491 98.6469 59.6466C99.3969 59.2442 100.266 59.043 101.258 59.043C102.155 59.043 102.996 59.2213 103.774 59.578C104.551 59.9348 105.223 60.4561 105.795 61.1329C106.362 61.8098 106.81 62.6284 107.13 63.5842C107.45 64.54 107.61 65.6056 107.61 66.7763C107.61 67.9471 107.45 69.0447 107.13 69.9959C106.81 70.9517 106.362 71.7658 105.795 72.4472C105.228 73.1286 104.556 73.6454 103.774 74.0021C102.996 74.3588 102.155 74.5371 101.258 74.5371C100.27 74.5371 99.3969 74.3359 98.6469 73.9335C97.8969 73.531 97.3024 72.9594 96.8588 72.2277V79.0006H93.5889V59.3722H96.8588ZM96.7215 66.7763C96.7215 67.6407 96.8176 68.3861 97.0097 69.0218C97.2017 69.6529 97.4716 70.1834 97.8191 70.6042C98.1667 71.0249 98.5737 71.345 99.0402 71.5554C99.5066 71.7658 100.005 71.8709 100.536 71.8709C101.693 71.8709 102.589 71.4182 103.229 70.5081C103.87 69.598 104.19 68.3587 104.19 66.7763C104.19 65.194 103.87 63.9821 103.229 63.072C102.589 62.1619 101.693 61.7092 100.536 61.7092C100.005 61.7092 99.5066 61.8144 99.0402 62.0247C98.5737 62.2351 98.1667 62.5461 97.8191 62.9622C97.4716 63.3738 97.2017 63.9043 97.0097 64.5446C96.8176 65.1894 96.7215 65.9303 96.7215 66.7763Z" fill="#0D213F"/>
<path d="M115.696 58.9323C116.611 58.9323 117.457 59.0421 118.239 59.2616C119.017 59.4811 119.689 59.8378 120.26 60.3363C120.828 60.8302 121.262 61.4842 121.568 62.2891C121.87 63.0985 122.012 64.0864 121.994 65.2617C121.994 65.4446 121.994 65.687 121.98 65.9888C121.971 66.2907 121.966 66.62 121.966 66.9675C121.966 67.3151 121.966 67.6809 121.953 68.056C121.943 68.431 121.939 68.7877 121.939 69.117C121.939 70.0545 121.975 70.9737 122.049 71.8838C122.122 72.7938 122.232 73.5576 122.378 74.1841H119.382C119.328 73.8731 119.277 73.5713 119.231 73.274C119.186 72.9813 119.145 72.5789 119.108 72.0621C118.651 72.8899 118.001 73.5073 117.155 73.9189C116.314 74.3305 115.34 74.5362 114.242 74.5362C113.437 74.5362 112.701 74.4311 112.029 74.2207C111.361 74.0103 110.785 73.7131 110.295 73.3243C109.811 72.9402 109.431 72.4737 109.17 71.9341C108.905 71.3944 108.772 70.7816 108.772 70.1048C108.772 69.1855 109.038 68.4264 109.568 67.8181C110.099 67.2145 110.817 66.716 111.727 66.3318C112.632 65.9477 113.689 65.655 114.887 65.4492C116.085 65.248 117.366 65.0742 118.719 64.9279V64.5711C118.719 63.9492 118.637 63.4278 118.472 63.0162C118.308 62.6046 118.084 62.2708 117.8 62.0238C117.517 61.7769 117.183 61.6031 116.799 61.5025C116.414 61.4019 115.994 61.3516 115.536 61.3516C114.695 61.3516 113.986 61.5711 113.419 62.0101C112.852 62.4491 112.55 63.1214 112.513 64.0178H109.298C109.353 63.2632 109.545 62.5772 109.875 61.9552C110.204 61.3333 110.648 60.7936 111.21 60.3454C111.768 59.8973 112.426 59.5451 113.19 59.2982C113.949 59.0512 114.786 58.9277 115.705 58.9277L115.696 58.9323ZM118.802 67.219C117.631 67.3288 116.629 67.4569 115.806 67.6032C114.983 67.7495 114.302 67.9325 113.771 68.152C113.241 68.3715 112.852 68.6322 112.605 68.9386C112.358 69.2404 112.234 69.6063 112.234 70.027C112.234 70.6719 112.481 71.1749 112.975 71.5408C113.469 71.9066 114.128 72.0896 114.956 72.0896C116.163 72.0896 117.109 71.7557 117.786 71.0834C118.463 70.4158 118.802 69.2999 118.802 67.7404V67.219Z" fill="#0D213F"/>
<path d="M127.962 61.4348C128.383 60.6619 128.973 60.072 129.736 59.6604C130.5 59.2488 131.401 59.043 132.444 59.043C133.345 59.043 134.109 59.1802 134.74 59.4546C135.371 59.729 135.892 60.1268 136.295 60.639C136.697 61.1512 136.994 61.7686 137.186 62.4821C137.378 63.1955 137.474 63.9958 137.474 64.8784V74.185H134.205V65.6788C134.205 65.1849 134.177 64.6955 134.122 64.2199C134.067 63.7443 133.944 63.3144 133.752 62.9394C133.56 62.5644 133.276 62.2671 132.901 62.043C132.526 61.8235 132.028 61.7138 131.406 61.7138C130.784 61.7138 130.249 61.8281 129.81 62.0568C129.371 62.2854 129.014 62.601 128.735 63.008C128.461 63.4104 128.264 63.8998 128.145 64.4669C128.026 65.0339 127.967 65.6513 127.967 66.3099V74.185H124.697V59.3722H127.967V61.4348H127.962Z" fill="#0D213F"/>
<path d="M143.538 54.2207V57.5226H140.268V54.2207H143.538ZM143.538 59.3702V74.1829H140.268V59.3702H143.538Z" fill="#0D213F"/>
<path d="M152.877 59.043C153.815 59.043 154.711 59.1985 155.571 59.5094C156.431 59.8204 157.194 60.2961 157.867 60.9272C158.534 61.5583 159.069 62.3632 159.476 63.3373C159.879 64.3114 160.08 65.4684 160.08 66.8038C160.08 68.1392 159.879 69.3008 159.476 70.2703C159.074 71.2444 158.539 72.0447 157.867 72.6804C157.199 73.3115 156.431 73.7826 155.571 74.0844C154.711 74.3862 153.815 74.5371 152.877 74.5371C151.94 74.5371 151.048 74.3862 150.184 74.0844C149.319 73.7826 148.555 73.3115 147.888 72.6804C147.22 72.0493 146.685 71.2444 146.278 70.2703C145.876 69.2962 145.674 68.1392 145.674 66.8038C145.674 65.4684 145.876 64.3068 146.278 63.3373C146.68 62.3632 147.215 61.5628 147.888 60.9272C148.555 60.2961 149.319 59.8204 150.184 59.5094C151.043 59.1985 151.94 59.043 152.877 59.043ZM152.877 71.8709C153.426 71.8709 153.929 71.7658 154.391 71.5554C154.848 71.345 155.251 71.034 155.598 70.6179C155.946 70.2063 156.216 69.6804 156.408 69.0492C156.6 68.4181 156.696 67.6681 156.696 66.8038C156.696 65.9394 156.6 65.2169 156.408 64.572C156.216 63.9318 155.946 63.3967 155.598 62.976C155.251 62.5552 154.848 62.2351 154.391 62.0247C153.934 61.8144 153.431 61.7092 152.877 61.7092C152.324 61.7092 151.825 61.8144 151.368 62.0247C150.911 62.2351 150.504 62.5507 150.161 62.976C149.813 63.3967 149.543 63.9318 149.351 64.572C149.159 65.2123 149.063 65.9577 149.063 66.8038C149.063 67.6498 149.159 68.4136 149.351 69.0492C149.543 69.6804 149.813 70.2063 150.161 70.6179C150.508 71.0295 150.911 71.345 151.368 71.5554C151.825 71.7658 152.328 71.8709 152.877 71.8709Z" fill="#0D213F"/>
<path d="M165.458 61.4348C165.879 60.6619 166.469 60.072 167.233 59.6604C167.996 59.2488 168.893 59.043 169.94 59.043C170.836 59.043 171.6 59.1802 172.236 59.4546C172.867 59.729 173.384 60.1268 173.791 60.639C174.193 61.1512 174.49 61.7686 174.682 62.4821C174.874 63.1955 174.971 63.9958 174.971 64.8784V74.185H171.701V65.6788C171.701 65.1849 171.673 64.6955 171.618 64.2199C171.563 63.7443 171.44 63.3144 171.248 62.9394C171.056 62.5644 170.772 62.2671 170.393 62.043C170.018 61.8235 169.519 61.7138 168.897 61.7138C168.275 61.7138 167.745 61.8281 167.306 62.0568C166.867 62.2854 166.51 62.601 166.231 63.008C165.957 63.4104 165.76 63.8998 165.641 64.4669C165.522 65.0339 165.463 65.6513 165.463 66.3099V74.185H162.193V59.3722H165.463V61.4348H165.458Z" fill="#0D213F"/>
<path d="M84.0384 36.8201H64.6471C63.284 36.8201 62.0693 36.0066 61.5526 34.7479C61.0305 33.4892 61.3163 32.0547 62.2782 31.0873L75.7113 17.6322H66.0872C63.4434 17.6322 61.2998 15.4831 61.2998 12.8338H79.1851C80.5427 12.8338 81.7629 13.6473 82.2795 14.906C82.8017 16.1646 82.5159 17.5992 81.554 18.5666L68.1208 32.0217H79.2565C81.9003 32.0217 84.0439 34.1708 84.0439 36.8201H84.0384ZM169.749 21.8314C169.749 16.6758 165.561 12.4766 160.411 12.4766C157.657 12.4766 155.178 13.6803 153.469 15.582C151.759 13.6748 149.281 12.4766 146.527 12.4766C141.377 12.4766 137.188 16.6703 137.188 21.8314V36.8201C139.832 36.8201 141.976 34.671 141.976 32.0217V21.8314C141.976 19.3196 144.015 17.2749 146.527 17.2749C149.039 17.2749 151.078 19.3196 151.078 21.8314V32.0217C151.078 34.671 153.221 36.8201 155.865 36.8201V21.8314C155.865 19.3196 157.904 17.2749 160.416 17.2749C162.928 17.2749 164.967 19.3196 164.967 21.8314V32.0217C164.967 34.671 167.111 36.8201 169.755 36.8201V21.8314H169.749ZM134.798 24.8324C134.798 31.6535 129.279 37.1828 122.469 37.1828C115.659 37.1828 110.141 31.6535 110.141 24.8324C110.141 18.0114 115.659 12.482 122.469 12.482C129.279 12.482 134.798 18.0114 134.798 24.8324ZM130.005 24.8324C130.005 20.6607 126.63 17.2804 122.464 17.2804C118.297 17.2804 114.923 20.6607 114.923 24.8324C114.923 29.0042 118.297 32.3845 122.464 32.3845C126.63 32.3845 130.005 29.0042 130.005 24.8324ZM108.222 24.8324C108.222 31.6535 102.704 37.1828 95.8941 37.1828C89.0841 37.1828 83.5657 31.6535 83.5657 24.8324C83.5657 18.0114 89.0841 12.482 95.8941 12.482C102.704 12.482 108.222 18.0114 108.222 24.8324ZM103.43 24.8324C103.43 20.6607 100.055 17.2804 95.8886 17.2804C91.7223 17.2804 88.3475 20.6607 88.3475 24.8324C88.3475 29.0042 91.7223 32.3845 95.8886 32.3845C100.055 32.3845 103.43 29.0042 103.43 24.8324Z" fill="#0B5CFF"/>
<path d="M31.3881 33.1536C29.7611 34.8135 27.4856 38.4411 26.2489 41.5576C24.666 45.5479 23.9405 47.6476 22.8961 47.6476C22.2805 47.6476 21.4011 45.9712 20.8295 44.5586C20.2414 43.1021 19.5983 41.4531 18.9827 40.1505C18.3506 38.8204 17.6691 37.4902 16.993 36.4239C16.1136 35.0333 15.2452 34.0275 14.5636 33.28C13.283 31.8839 10.4688 30.0151 7.56671 28.6465C3.96657 26.9537 0.185059 25.7225 0.185059 24.6287C0.185059 23.458 4.60416 22.0894 7.55022 20.7098C10.4468 19.3576 13.173 17.5383 14.5306 16.1313C16.317 14.2735 17.834 12.0255 18.9552 9.71698C19.4004 8.79908 20.2029 6.86436 20.9614 5.15498C21.7254 3.41812 22.4454 1.91211 23.1545 1.91211C24.0559 1.91211 25.1057 4.51741 25.6168 5.7431C26.2984 7.36454 27.1009 9.33223 28.6783 12.0694C30.2668 14.8396 32.2235 16.8128 34.2682 18.2309C36.104 19.5116 39.3853 21.1055 43.2712 22.7324C45.1675 23.5239 45.904 24.156 45.904 24.7111C45.904 25.3322 45.0136 25.8104 43.689 26.3765C41.8862 27.146 39.3138 28.1134 37.3461 29.0753C34.499 30.4658 32.6412 31.8674 31.3826 33.1481L31.3881 33.1536Z" stroke="black" stroke-width="0.37" stroke-miterlimit="10"/>
<path d="M43.2769 22.7383C39.3855 21.1114 36.1096 19.5174 34.2738 18.2367C32.2347 16.8187 30.278 14.84 28.684 12.0753C27.112 9.33809 26.3041 7.36488 25.6225 5.74894C25.1114 4.53424 24.078 1.96194 23.1821 1.91797V24.3652L45.9097 24.7115C45.8987 24.1618 45.1567 23.5353 43.2769 22.7438V22.7383Z" fill="url(#paint0_radial_117_2)"/>
<path d="M43.2769 22.7617C39.3855 21.1348 36.1096 19.5408 34.2738 18.2602C32.2347 16.8421 30.278 14.8634 28.684 12.0987C27.112 9.36154 26.3041 7.38833 25.6225 5.77239C25.1114 4.55769 24.078 1.98538 23.1821 1.94141V24.3887L45.9097 24.7349C45.8987 24.1853 45.1567 23.5587 43.2769 22.7672V22.7617Z" fill="url(#paint1_radial_117_2)"/>
<path d="M43.2769 22.7617C39.3855 21.1348 36.1096 19.5408 34.2738 18.2602C32.2347 16.8421 30.278 14.8634 28.684 12.0987C27.112 9.36154 26.3041 7.38833 25.6225 5.77239C25.1114 4.55769 24.078 1.98538 23.1821 1.94141V24.3887L45.9097 24.7349C45.8987 24.1853 45.1567 23.5587 43.2769 22.7672V22.7617Z" fill="url(#paint2_radial_117_2)"/>
<path d="M43.2769 22.7383C39.3855 21.1114 36.1096 19.5174 34.2738 18.2367C32.2347 16.8187 30.278 14.84 28.684 12.0753C27.112 9.33809 26.3041 7.36488 25.6225 5.74894C25.1114 4.53424 24.078 1.96194 23.1821 1.91797V24.3652L45.9097 24.7115C45.8987 24.1618 45.1567 23.5353 43.2769 22.7438V22.7383Z" fill="url(#paint3_radial_117_2)"/>
<path d="M43.2769 22.7383C39.3855 21.1114 36.1096 19.5174 34.2738 18.2367C32.2347 16.8187 30.278 14.84 28.684 12.0753C27.112 9.33809 26.3041 7.36488 25.6225 5.74894C25.1114 4.53424 24.078 1.96194 23.1821 1.91797V24.3652L45.9097 24.7115C45.8987 24.1618 45.1567 23.5353 43.2769 22.7438V22.7383Z" fill="url(#paint4_radial_117_2)"/>
<path d="M22.9844 47.6421C23.9847 47.5266 24.7157 45.438 26.2547 41.5576C27.4914 38.4466 29.7669 34.8135 31.3939 33.1536C32.6525 31.8729 34.5103 30.4714 37.3574 29.0808C39.3196 28.1244 41.8974 27.1515 43.7003 26.382C45.0249 25.8159 45.9153 25.3377 45.9153 24.7166C45.9153 24.7166 45.9153 24.7111 45.9153 24.7057L22.9899 24.3594V47.6421H22.9844Z" fill="url(#paint5_radial_117_2)"/>
<path d="M22.9844 47.6421C23.9847 47.5266 24.7157 45.438 26.2547 41.5576C27.4914 38.4466 29.7669 34.8135 31.3939 33.1536C32.6525 31.8729 34.5103 30.4714 37.3574 29.0808C39.3196 28.1244 41.8974 27.1515 43.7003 26.382C45.0249 25.8159 45.9153 25.3377 45.9153 24.7166C45.9153 24.7166 45.9153 24.7111 45.9153 24.7057L22.9899 24.3594V47.6421H22.9844Z" fill="url(#paint6_radial_117_2)"/>
<path d="M22.9844 47.6421C23.9847 47.5266 24.7157 45.438 26.2547 41.5576C27.4914 38.4466 29.7669 34.8135 31.3939 33.1536C32.6525 31.8729 34.5103 30.4714 37.3574 29.0808C39.3196 28.1244 41.8974 27.1515 43.7003 26.382C45.0249 25.8159 45.9153 25.3377 45.9153 24.7166C45.9153 24.7166 45.9153 24.7111 45.9153 24.7057L22.9899 24.3594V47.6421H22.9844Z" fill="url(#paint7_radial_117_2)"/>
<path d="M23.1877 1.91211C23.1877 1.91211 23.1712 1.91211 23.1657 1.91211C22.4567 1.91211 21.7421 3.42362 20.9726 5.15498C20.2196 6.86986 19.4117 8.79908 18.9665 9.71698C17.8452 12.0255 16.3282 14.2735 14.5419 16.1313C13.1843 17.5438 10.4525 19.3576 7.56145 20.7098C4.61539 22.0893 0.196289 23.4525 0.196289 24.6287C0.196289 24.6397 0.196289 24.6507 0.196289 24.6562L23.1932 24.7166V1.91211H23.1877Z" fill="url(#paint8_radial_117_2)"/>
<path d="M23.1877 1.91211C23.1877 1.91211 23.1712 1.91211 23.1657 1.91211C22.4567 1.91211 21.7421 3.42362 20.9726 5.15498C20.2196 6.86986 19.4117 8.79908 18.9665 9.71698C17.8452 12.0255 16.3282 14.2735 14.5419 16.1313C13.1843 17.5438 10.4525 19.3576 7.56145 20.7098C4.61539 22.0893 0.196289 23.4525 0.196289 24.6287C0.196289 24.6397 0.196289 24.6507 0.196289 24.6562L23.1932 24.7166V1.91211H23.1877Z" fill="url(#paint9_radial_117_2)"/>
<path d="M23.1877 1.91211C23.1877 1.91211 23.1712 1.91211 23.1657 1.91211C22.4567 1.91211 21.7421 3.42362 20.9726 5.15498C20.2196 6.86986 19.4117 8.79908 18.9665 9.71698C17.8452 12.0255 16.3282 14.2735 14.5419 16.1313C13.1843 17.5438 10.4525 19.3576 7.56145 20.7098C4.61539 22.0893 0.196289 23.4525 0.196289 24.6287C0.196289 24.6397 0.196289 24.6507 0.196289 24.6562L23.1932 24.7166V1.91211H23.1877Z" fill="url(#paint10_radial_117_2)"/>
<path d="M22.9844 24.7226L0.190918 24.6621C0.256875 25.7504 4.00541 26.9706 7.57257 28.6525C10.4747 30.0211 13.2888 31.8844 14.5695 33.2859C15.251 34.0335 16.1195 35.0393 16.9989 36.4299C17.6749 37.4907 18.3565 38.8263 18.9886 40.1564C19.6042 41.4536 20.2472 43.1025 20.8354 44.5645C21.407 45.9826 22.2864 47.6535 22.902 47.6535C22.9295 47.6535 22.9625 47.6535 22.9899 47.6535V24.7336L22.9844 24.7226Z" fill="url(#paint11_radial_117_2)"/>
<path d="M22.9844 24.7226L0.190918 24.6621C0.256875 25.7504 4.00541 26.9706 7.57257 28.6525C10.4747 30.0211 13.2888 31.8844 14.5695 33.2859C15.251 34.0335 16.1195 35.0393 16.9989 36.4299C17.6749 37.4907 18.3565 38.8263 18.9886 40.1564C19.6042 41.4536 20.2472 43.1025 20.8354 44.5645C21.407 45.9826 22.2864 47.6535 22.902 47.6535C22.9295 47.6535 22.9625 47.6535 22.9899 47.6535V24.7336L22.9844 24.7226Z" fill="url(#paint12_radial_117_2)"/>
<path d="M22.9844 24.7226L0.190918 24.6621C0.256875 25.7504 4.00541 26.9706 7.57257 28.6525C10.4747 30.0211 13.2888 31.8844 14.5695 33.2859C15.251 34.0335 16.1195 35.0393 16.9989 36.4299C17.6749 37.4907 18.3565 38.8263 18.9886 40.1564C19.6042 41.4536 20.2472 43.1025 20.8354 44.5645C21.407 45.9826 22.2864 47.6535 22.902 47.6535C22.9295 47.6535 22.9625 47.6535 22.9899 47.6535V24.7336L22.9844 24.7226Z" fill="url(#paint13_radial_117_2)"/>
<path d="M14.3166 26.2284C15.8391 27.2343 17.4056 28.5919 18.6313 29.8615C20.8903 32.203 22.7426 35.325 22.9844 35.7537L22.902 24.6895H11.8872C12.0686 24.7994 13.1019 25.4205 14.3221 26.2284H14.3166Z" fill="url(#paint14_radial_117_2)"/>
<path d="M31.6795 22.9466C30.4209 22.0617 28.9423 20.869 27.887 19.7807C26.7878 18.6539 25.727 17.3348 24.919 16.1916C23.8637 14.691 23.2096 13.4983 23.1821 13.4434V24.5076H34.1474C33.8891 24.3647 32.8833 23.7876 31.6795 22.9466Z" fill="url(#paint15_radial_117_2)"/>
<path d="M48.4549 7.05773C47.1358 6.50809 46.0255 5.96395 45.4044 5.53523C44.7119 5.05155 44.0523 4.38648 43.5137 3.4466C42.9805 2.51771 42.7057 1.85265 42.4748 1.30301C42.3045 0.890778 41.9527 0.0223485 41.6504 0.00585938V7.60737L49.3508 7.72279C49.3508 7.53591 49.098 7.32155 48.4604 7.05773H48.4549Z" fill="url(#paint16_radial_117_2)"/>
<path d="M48.4549 7.06359C47.1358 6.51395 46.0255 5.96979 45.4044 5.54108C44.7119 5.05739 44.0523 4.39234 43.5137 3.45246C42.9805 2.52357 42.7057 1.85851 42.4748 1.30887C42.3045 0.896638 41.9527 0.0282079 41.6504 0.0117188V7.61323L49.3508 7.72864C49.3508 7.54177 49.098 7.32741 48.4604 7.06359H48.4549Z" fill="url(#paint17_radial_117_2)"/>
<path d="M48.4549 7.06359C47.1358 6.51395 46.0255 5.96979 45.4044 5.54108C44.7119 5.05739 44.0523 4.39234 43.5137 3.45246C42.9805 2.52357 42.7057 1.85851 42.4748 1.30887C42.3045 0.896638 41.9527 0.0282079 41.6504 0.0117188V7.61323L49.3508 7.72864C49.3508 7.54177 49.098 7.32741 48.4604 7.06359H48.4549Z" fill="url(#paint18_radial_117_2)"/>
<path d="M48.4549 7.05773C47.1358 6.50809 46.0255 5.96395 45.4044 5.53523C44.7119 5.05155 44.0523 4.38648 43.5137 3.4466C42.9805 2.51771 42.7057 1.85265 42.4748 1.30301C42.3045 0.890778 41.9527 0.0223485 41.6504 0.00585938V7.60737L49.3508 7.72279C49.3508 7.53591 49.098 7.32155 48.4604 7.05773H48.4549Z" fill="url(#paint19_radial_117_2)"/>
<path d="M41.5786 15.4947C41.9194 15.4563 42.1667 14.7472 42.6834 13.4336C43.1011 12.3783 43.8706 11.1471 44.4257 10.5865C44.849 10.1523 45.481 9.67956 46.4429 9.20687C47.108 8.88259 47.9819 8.5528 48.592 8.29447C49.0427 8.1021 49.345 7.9427 49.345 7.72834L41.5786 7.60742V15.4947Z" fill="url(#paint20_radial_117_2)"/>
<path d="M41.5786 15.4947C41.9194 15.4563 42.1667 14.7472 42.6834 13.4336C43.1011 12.3783 43.8706 11.1471 44.4257 10.5865C44.849 10.1523 45.481 9.67956 46.4429 9.20687C47.108 8.88259 47.9819 8.5528 48.592 8.29447C49.0427 8.1021 49.345 7.9427 49.345 7.72834L41.5786 7.60742V15.4947Z" fill="url(#paint21_radial_117_2)"/>
<path d="M41.5786 15.4947C41.9194 15.4563 42.1667 14.7472 42.6834 13.4336C43.1011 12.3783 43.8706 11.1471 44.4257 10.5865C44.849 10.1523 45.481 9.67956 46.4429 9.20687C47.108 8.88259 47.9819 8.5528 48.592 8.29447C49.0427 8.1021 49.345 7.9427 49.345 7.72834L41.5786 7.60742V15.4947Z" fill="url(#paint22_radial_117_2)"/>
<path d="M41.6502 0.00549337C41.6502 0.00549337 41.6502 0.00549337 41.6447 0.00549337C41.4029 0.00549337 41.161 0.516657 40.9027 1.10477C40.6444 1.68739 40.375 2.34147 40.2211 2.64926C39.8419 3.42975 39.3252 4.19374 38.7206 4.82033C38.2589 5.29851 37.3355 5.91411 36.3572 6.37031C35.3623 6.83751 33.8618 7.2992 33.8618 7.69494C33.8618 7.69494 33.8618 7.70043 33.8618 7.70593L41.6502 7.72792V0V0.00549337Z" fill="url(#paint23_radial_117_2)"/>
<path d="M41.6502 0.00549337C41.6502 0.00549337 41.6502 0.00549337 41.6447 0.00549337C41.4029 0.00549337 41.161 0.516657 40.9027 1.10477C40.6444 1.68739 40.375 2.34147 40.2211 2.64926C39.8419 3.42975 39.3252 4.19374 38.7206 4.82033C38.2589 5.29851 37.3355 5.91411 36.3572 6.37031C35.3623 6.83751 33.8618 7.2992 33.8618 7.69494C33.8618 7.69494 33.8618 7.70043 33.8618 7.70593L41.6502 7.72792V0V0.00549337Z" fill="url(#paint24_radial_117_2)"/>
<path d="M41.6502 0.00549337C41.6502 0.00549337 41.6502 0.00549337 41.6447 0.00549337C41.4029 0.00549337 41.161 0.516657 40.9027 1.10477C40.6444 1.68739 40.375 2.34147 40.2211 2.64926C39.8419 3.42975 39.3252 4.19374 38.7206 4.82033C38.2589 5.29851 37.3355 5.91411 36.3572 6.37031C35.3623 6.83751 33.8618 7.2992 33.8618 7.69494C33.8618 7.69494 33.8618 7.70043 33.8618 7.70593L41.6502 7.72792V0V0.00549337Z" fill="url(#paint25_radial_117_2)"/>
<path d="M41.6502 0.00549337C41.6502 0.00549337 41.6502 0.00549337 41.6447 0.00549337C41.4029 0.00549337 41.161 0.516657 40.9027 1.10477C40.6444 1.68739 40.375 2.34147 40.2211 2.64926C39.8419 3.42975 39.3252 4.19374 38.7206 4.82033C38.2589 5.29851 37.3355 5.91411 36.3572 6.37031C35.3623 6.83751 33.8618 7.2992 33.8618 7.69494C33.8618 7.69494 33.8618 7.70043 33.8618 7.70593L41.6502 7.72792V0V0.00549337Z" fill="url(#paint26_radial_117_2)"/>
<path d="M41.5784 7.72902L33.856 7.70703C33.8779 8.07529 35.1476 8.48753 36.3568 9.05915C37.3407 9.52085 38.2915 10.1529 38.7258 10.6311C38.9566 10.8839 39.2479 11.2247 39.5502 11.6974C39.7811 12.0602 40.0119 12.5109 40.2263 12.9616C40.4351 13.4013 40.655 13.9619 40.8529 14.4566C41.0452 14.9348 41.342 15.5009 41.5509 15.5009C41.5619 15.5009 41.5729 15.5009 41.5784 15.5009V7.73452V7.72902Z" fill="url(#paint27_radial_117_2)"/>
<path d="M41.5784 7.72902L33.856 7.70703C33.8779 8.07529 35.1476 8.48753 36.3568 9.05915C37.3407 9.52085 38.2915 10.1529 38.7258 10.6311C38.9566 10.8839 39.2479 11.2247 39.5502 11.6974C39.7811 12.0602 40.0119 12.5109 40.2263 12.9616C40.4351 13.4013 40.655 13.9619 40.8529 14.4566C41.0452 14.9348 41.342 15.5009 41.5509 15.5009C41.5619 15.5009 41.5729 15.5009 41.5784 15.5009V7.73452V7.72902Z" fill="url(#paint28_radial_117_2)"/>
<path d="M41.5784 7.72902L33.856 7.70703C33.8779 8.07529 35.1476 8.48753 36.3568 9.05915C37.3407 9.52085 38.2915 10.1529 38.7258 10.6311C38.9566 10.8839 39.2479 11.2247 39.5502 11.6974C39.7811 12.0602 40.0119 12.5109 40.2263 12.9616C40.4351 13.4013 40.655 13.9619 40.8529 14.4566C41.0452 14.9348 41.342 15.5009 41.5509 15.5009C41.5619 15.5009 41.5729 15.5009 41.5784 15.5009V7.73452V7.72902Z" fill="url(#paint29_radial_117_2)"/>
<path d="M38.6438 8.23894C39.1605 8.57972 39.6881 9.03593 40.1058 9.47015C40.8698 10.2616 41.4964 11.3224 41.5789 11.4653L41.5514 7.7168H37.8193C37.8798 7.75527 38.2316 7.96412 38.6438 8.23894Z" fill="url(#paint30_radial_117_2)"/>
<path d="M44.5246 7.12945C44.0959 6.82715 43.5957 6.42591 43.2385 6.05765C42.8647 5.6784 42.5075 5.2277 42.2326 4.84295C41.8754 4.33729 41.6555 3.93055 41.6445 3.91406V7.6626H45.3601C45.2721 7.61314 44.9314 7.42077 44.5246 7.13495V7.12945Z" fill="url(#paint31_radial_117_2)"/>
<defs>
<radialGradient id="paint0_radial_117_2" cx="0" cy="0" r="1" gradientUnits="userSpaceOnUse" gradientTransform="translate(25.233 0.916234) rotate(48.26) scale(25.2202 16.7781)">
<stop offset="0.02" stop-color="#2752EE"/>
<stop offset="0.13" stop-color="#3B66EF"/>
<stop offset="0.46" stop-color="#77A3F4"/>
<stop offset="0.7" stop-color="#9CC9F7"/>
<stop offset="0.83" stop-color="#ABD8F9"/>
</radialGradient>
<radialGradient id="paint1_radial_117_2" cx="0" cy="0" r="1" gradientUnits="userSpaceOnUse" gradientTransform="translate(38.5614 8.12569) rotate(33.81) scale(20.6009 18.07)">
<stop offset="0.51" stop-color="#A8D5FA" stop-opacity="0"/>
<stop offset="0.54" stop-color="#A9D5F9" stop-opacity="0"/>
<stop offset="0.59" stop-color="#ACD6F9" stop-opacity="0.01"/>
<stop offset="0.65" stop-color="#B2D7F9" stop-opacity="0.07"/>
<stop offset="0.72" stop-color="#B9D9F9" stop-opacity="0.21"/>
<stop offset="0.8" stop-color="#C3DBF9" stop-opacity="0.5"/>
<stop offset="0.88" stop-color="#CFDEF9"/>
</radialGradient>
<radialGradient id="paint2_radial_117_2" cx="0" cy="0" r="1" gradientUnits="userSpaceOnUse" gradientTransform="translate(40.7057 5.91218) rotate(95.61) scale(20.6186 18.0523)">
<stop offset="0.5" stop-color="#A8D5FA" stop-opacity="0"/>
<stop offset="0.57" stop-color="#A8D5F9" stop-opacity="0"/>
<stop offset="0.63" stop-color="#AAD5F9" stop-opacity="0"/>
<stop offset="0.69" stop-color="#ADD6F9" stop-opacity="0.02"/>
<stop offset="0.76" stop-color="#B1D7F9" stop-opacity="0.06"/>
<stop offset="0.82" stop-color="#B7D8F9" stop-opacity="0.16"/>
<stop offset="0.88" stop-color="#BEDAF9" stop-opacity="0.32"/>
<stop offset="0.94" stop-color="#C6DBF9" stop-opacity="0.6"/>
<stop offset="1" stop-color="#CFDEF9"/>
</radialGradient>
<radialGradient id="paint3_radial_117_2" cx="0" cy="0" r="1" gradientUnits="userSpaceOnUse" gradientTransform="translate(41.9965 15.4721) rotate(33.81) scale(20.6894 12.9021)">
<stop offset="0.4" stop-color="#504AF4"/>
<stop offset="0.41" stop-color="#504BF4" stop-opacity="0.98"/>
<stop offset="0.47" stop-color="#656BF5" stop-opacity="0.58"/>
<stop offset="0.54" stop-color="#7888F6" stop-opacity="0.31"/>
<stop offset="0.61" stop-color="#87A1F7" stop-opacity="0.15"/>
<stop offset="0.68" stop-color="#94B4F7" stop-opacity="0.06"/>
<stop offset="0.75" stop-color="#9EC4F8" stop-opacity="0.02"/>
<stop offset="0.82" stop-color="#A5CFF8" stop-opacity="0"/>
<stop offset="0.89" stop-color="#A9D5F8" stop-opacity="0"/>
<stop offset="0.97" stop-color="#ABD8F9" stop-opacity="0"/>
</radialGradient>
<radialGradient id="paint4_radial_117_2" cx="0" cy="0" r="1" gradientUnits="userSpaceOnUse" gradientTransform="translate(29.5737 -0.921877) rotate(55.07) scale(20.7071 12.9021)">
<stop offset="0.25" stop-color="#504BF4" stop-opacity="0.98"/>
<stop offset="0.34" stop-color="#656BF5" stop-opacity="0.58"/>
<stop offset="0.42" stop-color="#7888F6" stop-opacity="0.31"/>
<stop offset="0.51" stop-color="#87A1F7" stop-opacity="0.15"/>
<stop offset="0.6" stop-color="#94B4F7" stop-opacity="0.06"/>
<stop offset="0.69" stop-color="#9EC4F8" stop-opacity="0.02"/>
<stop offset="0.78" stop-color="#A5CFF8" stop-opacity="0"/>
<stop offset="0.87" stop-color="#A9D5F8" stop-opacity="0"/>
<stop offset="0.97" stop-color="#ABD8F9" stop-opacity="0"/>
</radialGradient>
<radialGradient id="paint5_radial_117_2" cx="0" cy="0" r="1" gradientUnits="userSpaceOnUse" gradientTransform="translate(34.077 21.0018) rotate(7.81) scale(20.0169 13.3092)">
<stop offset="0.23" stop-color="#0D29F2"/>
<stop offset="0.31" stop-color="#1030F1"/>
<stop offset="0.43" stop-color="#1B44F1"/>
<stop offset="0.58" stop-color="#2C66F0"/>
<stop offset="0.75" stop-color="#4394EF"/>
<stop offset="0.88" stop-color="#5AC1EE"/>
</radialGradient>
<radialGradient id="paint6_radial_117_2" cx="0" cy="0" r="1" gradientUnits="userSpaceOnUse" gradientTransform="translate(45.7313 41.1126) rotate(-77.84) scale(28.9014 33.2552)">
<stop offset="0.34" stop-color="#ABD8F9" stop-opacity="0"/>
<stop offset="0.39" stop-color="#A8D5F8" stop-opacity="0"/>
<stop offset="0.45" stop-color="#A0CCF6" stop-opacity="0"/>
<stop offset="0.52" stop-color="#94BDF4" stop-opacity="0.03"/>
<stop offset="0.58" stop-color="#82A9F0" stop-opacity="0.1"/>
<stop offset="0.65" stop-color="#6B8FEB" stop-opacity="0.23"/>
<stop offset="0.71" stop-color="#4F6FE6" stop-opacity="0.48"/>
<stop offset="0.78" stop-color="#2E4ADF" stop-opacity="0.89"/>
<stop offset="0.79" stop-color="#2742DE"/>
</radialGradient>
<radialGradient id="paint7_radial_117_2" cx="0" cy="0" r="1" gradientUnits="userSpaceOnUse" gradientTransform="translate(36.3302 22.3011) rotate(-69.2) scale(21.5389 24.7954)">
<stop offset="0.23" stop-color="#2742DE"/>
<stop offset="0.31" stop-color="#334FE0" stop-opacity="0.82"/>
<stop offset="0.48" stop-color="#5273E6" stop-opacity="0.45"/>
<stop offset="0.71" stop-color="#84ACF1" stop-opacity="0.08"/>
<stop offset="0.87" stop-color="#ABD8F9" stop-opacity="0"/>
</radialGradient>
<radialGradient id="paint8_radial_117_2" cx="0" cy="0" r="1" gradientUnits="userSpaceOnUse" gradientTransform="translate(27.9467 8.4343) rotate(50.8) scale(30.9014 27.7864)">
<stop offset="0.24" stop-color="#262FEA"/>
<stop offset="0.29" stop-color="#3446EA"/>
<stop offset="0.4" stop-color="#5275EC"/>
<stop offset="0.49" stop-color="#6898ED"/>
<stop offset="0.57" stop-color="#75ADED"/>
<stop offset="0.62" stop-color="#7AB5EE"/>
</radialGradient>
<radialGradient id="paint9_radial_117_2" cx="0" cy="0" r="1" gradientUnits="userSpaceOnUse" gradientTransform="translate(12.1536 13.6059) rotate(8.48) scale(21.0965 13.4331)">
<stop offset="0.16" stop-color="#7AB5EE" stop-opacity="0"/>
<stop offset="0.28" stop-color="#79B4ED" stop-opacity="0"/>
<stop offset="0.39" stop-color="#78B3ED" stop-opacity="0"/>
<stop offset="0.5" stop-color="#77B0ED" stop-opacity="0.02"/>
<stop offset="0.6" stop-color="#74ADED" stop-opacity="0.06"/>
<stop offset="0.7" stop-color="#72A9ED" stop-opacity="0.16"/>
<stop offset="0.81" stop-color="#6EA3ED" stop-opacity="0.32"/>
<stop offset="0.9" stop-color="#6A9DED" stop-opacity="0.6"/>
<stop offset="1" stop-color="#6697ED"/>
</radialGradient>
<radialGradient id="paint10_radial_117_2" cx="0" cy="0" r="1" gradientUnits="userSpaceOnUse" gradientTransform="translate(23.7733 8.4777) rotate(112.54) scale(21.1142 13.4154)">
<stop offset="0.23" stop-color="#2742DE"/>
<stop offset="0.31" stop-color="#334FE0" stop-opacity="0.82"/>
<stop offset="0.48" stop-color="#5273E6" stop-opacity="0.45"/>
<stop offset="0.71" stop-color="#84ACF1" stop-opacity="0.08"/>
<stop offset="0.87" stop-color="#ABD8F9" stop-opacity="0"/>
</radialGradient>
<radialGradient id="paint11_radial_117_2" cx="0" cy="0" r="1" gradientUnits="userSpaceOnUse" gradientTransform="translate(20.8656 26.504) rotate(129.14) scale(15.1144 25.6272)">
<stop offset="0.24" stop-color="#262FEA"/>
<stop offset="0.27" stop-color="#3141EA"/>
<stop offset="0.35" stop-color="#4B6AEB"/>
<stop offset="0.43" stop-color="#5F8AEC"/>
<stop offset="0.51" stop-color="#6EA2ED"/>
<stop offset="0.59" stop-color="#76B0ED"/>
<stop offset="0.65" stop-color="#7AB5EE"/>
</radialGradient>
<radialGradient id="paint12_radial_117_2" cx="0" cy="0" r="1" gradientUnits="userSpaceOnUse" gradientTransform="translate(10.9306 44.7615) rotate(129.14) scale(15.1144 25.6272)">
<stop offset="0.4" stop-color="#504AF4"/>
<stop offset="0.41" stop-color="#504BF4" stop-opacity="0.98"/>
<stop offset="0.47" stop-color="#656BF5" stop-opacity="0.58"/>
<stop offset="0.54" stop-color="#7888F6" stop-opacity="0.31"/>
<stop offset="0.61" stop-color="#87A1F7" stop-opacity="0.15"/>
<stop offset="0.68" stop-color="#94B4F7" stop-opacity="0.06"/>
<stop offset="0.75" stop-color="#9EC4F8" stop-opacity="0.02"/>
<stop offset="0.82" stop-color="#A5CFF8" stop-opacity="0"/>
<stop offset="0.89" stop-color="#A9D5F8" stop-opacity="0"/>
<stop offset="0.97" stop-color="#ABD8F9" stop-opacity="0"/>
</radialGradient>
<radialGradient id="paint13_radial_117_2" cx="0" cy="0" r="1" gradientUnits="userSpaceOnUse" gradientTransform="translate(0.276003 34.5727) rotate(115.39) scale(16.4772 27.9103)">
<stop offset="0.34" stop-color="#504AF4"/>
<stop offset="0.39" stop-color="#5D5EF4" stop-opacity="0.73"/>
<stop offset="0.48" stop-color="#717EF5" stop-opacity="0.4"/>
<stop offset="0.56" stop-color="#8399F6" stop-opacity="0.19"/>
<stop offset="0.65" stop-color="#91B0F7" stop-opacity="0.08"/>
<stop offset="0.73" stop-color="#9CC1F8" stop-opacity="0.02"/>
<stop offset="0.82" stop-color="#A4CEF8" stop-opacity="0"/>
<stop offset="0.9" stop-color="#A9D5F8" stop-opacity="0"/>
<stop offset="0.97" stop-color="#ABD8F9" stop-opacity="0"/>
</radialGradient>
<radialGradient id="paint14_radial_117_2" cx="0" cy="0" r="1" gradientUnits="userSpaceOnUse" gradientTransform="translate(22.9589 24.9746) rotate(136.59) scale(12.3358 15.6453)">
<stop offset="0.18" stop-color="#2742E2"/>
<stop offset="0.41" stop-color="#3964EB"/>
<stop offset="0.72" stop-color="#559AFA"/>
</radialGradient>
<radialGradient id="paint15_radial_117_2" cx="0" cy="0" r="1" gradientUnits="userSpaceOnUse" gradientTransform="translate(25.7282 16.1221) rotate(49.49) scale(11.5393 9.91109)">
<stop offset="0.13" stop-color="#8D5DF7"/>
<stop offset="0.34" stop-color="#6C4CF0"/>
<stop offset="0.72" stop-color="#272BE2"/>
</radialGradient>
<radialGradient id="paint16_radial_117_2" cx="0" cy="0" r="1" gradientUnits="userSpaceOnUse" gradientTransform="translate(46.316 0.122366) rotate(62.34) scale(8.54831 5.68118)">
<stop offset="0.02" stop-color="#2752EE"/>
<stop offset="0.09" stop-color="#335EEF"/>
<stop offset="0.39" stop-color="#6692F3"/>
<stop offset="0.66" stop-color="#8BB8F6"/>
<stop offset="0.87" stop-color="#A2CFF8"/>
<stop offset="1" stop-color="#ABD8F9"/>
</radialGradient>
<radialGradient id="paint17_radial_117_2" cx="0" cy="0" r="1" gradientTransform="matrix(5.79391 3.88015 3.40744 -5.08805 47.0234 1.70002)" gradientUnits="userSpaceOnUse">
<stop offset="0.39" stop-color="#A8D5FA" stop-opacity="0"/>
<stop offset="0.45" stop-color="#ACD7F9" stop-opacity="0.01"/>
<stop offset="0.58" stop-color="#B8DEF9" stop-opacity="0.19"/>
<stop offset="0.78" stop-color="#CBEAF9" stop-opacity="0.85"/>
<stop offset="0.81" stop-color="#CFECF9"/>
</radialGradient>
<radialGradient id="paint18_radial_117_2" cx="0" cy="0" r="1" gradientUnits="userSpaceOnUse" gradientTransform="translate(45.8396 1.27851) rotate(95.61) scale(6.99085 6.10594)">
<stop offset="0.5" stop-color="#A8D5FA" stop-opacity="0"/>
<stop offset="0.57" stop-color="#A8D5F9" stop-opacity="0"/>
<stop offset="0.63" stop-color="#AAD5F9" stop-opacity="0"/>
<stop offset="0.69" stop-color="#ADD6F9" stop-opacity="0.02"/>
<stop offset="0.76" stop-color="#B1D7F9" stop-opacity="0.06"/>
<stop offset="0.82" stop-color="#B7D8F9" stop-opacity="0.16"/>
<stop offset="0.88" stop-color="#BEDAF9" stop-opacity="0.32"/>
<stop offset="0.94" stop-color="#C6DBF9" stop-opacity="0.6"/>
<stop offset="1" stop-color="#CFDEF9"/>
</radialGradient>
<radialGradient id="paint19_radial_117_2" cx="0" cy="0" r="1" gradientTransform="matrix(5.82332 3.89984 2.43248 -3.63222 48.6974 3.97985)" gradientUnits="userSpaceOnUse">
<stop offset="0.39" stop-color="#504BF4" stop-opacity="0.98"/>
<stop offset="0.46" stop-color="#656BF5" stop-opacity="0.58"/>
<stop offset="0.53" stop-color="#7888F6" stop-opacity="0.31"/>
<stop offset="0.6" stop-color="#87A1F7" stop-opacity="0.15"/>
<stop offset="0.67" stop-color="#94B4F7" stop-opacity="0.06"/>
<stop offset="0.74" stop-color="#9EC4F8" stop-opacity="0.02"/>
<stop offset="0.81" stop-color="#A5CFF8" stop-opacity="0"/>
<stop offset="0.89" stop-color="#A9D5F8" stop-opacity="0"/>
<stop offset="0.97" stop-color="#ABD8F9" stop-opacity="0"/>
</radialGradient>
<radialGradient id="paint20_radial_117_2" cx="0" cy="0" r="1" gradientUnits="userSpaceOnUse" gradientTransform="translate(47.0345 7.277) rotate(26.72) scale(6.77847 4.51309)">
<stop offset="0.23" stop-color="#2654FA"/>
<stop offset="0.36" stop-color="#3563FA"/>
<stop offset="0.62" stop-color="#5C8DFA"/>
<stop offset="0.98" stop-color="#9BCFFA"/>
<stop offset="0.99" stop-color="#9DD1FB"/>
</radialGradient>
<radialGradient id="paint21_radial_117_2" cx="0" cy="0" r="1" gradientUnits="userSpaceOnUse" gradientTransform="translate(47.4959 10.8979) rotate(-77.84) scale(9.7872 11.2739)">
<stop offset="0.4" stop-color="#ABD8F9" stop-opacity="0"/>
<stop offset="0.55" stop-color="#A9D6F9" stop-opacity="0"/>
<stop offset="0.61" stop-color="#A6D3F9" stop-opacity="0"/>
<stop offset="0.65" stop-color="#9FCDF9" stop-opacity="0"/>
<stop offset="0.68" stop-color="#96C3F9" stop-opacity="0.02"/>
<stop offset="0.71" stop-color="#8AB8F9" stop-opacity="0.06"/>
<stop offset="0.74" stop-color="#7CA9F9" stop-opacity="0.12"/>
<stop offset="0.76" stop-color="#6A98F9" stop-opacity="0.23"/>
<stop offset="0.79" stop-color="#5684F9" stop-opacity="0.4"/>
<stop offset="0.8" stop-color="#406EF9" stop-opacity="0.64"/>
<stop offset="0.82" stop-color="#2654FA"/>
</radialGradient>
<radialGradient id="paint22_radial_117_2" cx="0" cy="0" r="1" gradientUnits="userSpaceOnUse" gradientTransform="translate(47.746 7.49682) rotate(-69.2) scale(7.29173 8.38902)">
<stop offset="0.23" stop-color="#2742DE"/>
<stop offset="0.31" stop-color="#334FE0" stop-opacity="0.82"/>
<stop offset="0.48" stop-color="#5273E6" stop-opacity="0.45"/>
<stop offset="0.71" stop-color="#84ACF1" stop-opacity="0.08"/>
<stop offset="0.87" stop-color="#ABD8F9" stop-opacity="0"/>
</radialGradient>
<radialGradient id="paint23_radial_117_2" cx="0" cy="0" r="1" gradientUnits="userSpaceOnUse" gradientTransform="translate(41.1774 1.69808) rotate(44.11) scale(10.4597 9.41553)">
<stop offset="0.2" stop-color="#2759F5"/>
<stop offset="0.37" stop-color="#4883F2"/>
<stop offset="0.6" stop-color="#7AC2EE"/>
</radialGradient>
<radialGradient id="paint24_radial_117_2" cx="0" cy="0" r="1" gradientUnits="userSpaceOnUse" gradientTransform="translate(40.5186 9.66748) rotate(166.01) scale(5.59268 2.84944)">
<stop offset="0.23" stop-color="#6CB4F4"/>
<stop offset="0.28" stop-color="#75B9F4" stop-opacity="0.73"/>
<stop offset="0.35" stop-color="#81C0F5" stop-opacity="0.43"/>
<stop offset="0.42" stop-color="#8CC6F6" stop-opacity="0.23"/>
<stop offset="0.5" stop-color="#96CCF7" stop-opacity="0.11"/>
<stop offset="0.58" stop-color="#9DD0F7" stop-opacity="0.04"/>
<stop offset="0.67" stop-color="#A3D3F8" stop-opacity="0.01"/>
<stop offset="0.76" stop-color="#A7D6F8" stop-opacity="0"/>
<stop offset="0.86" stop-color="#AAD7F8" stop-opacity="0"/>
<stop offset="1" stop-color="#ABD8F9" stop-opacity="0"/>
</radialGradient>
<radialGradient id="paint25_radial_117_2" cx="0" cy="0" r="1" gradientUnits="userSpaceOnUse" gradientTransform="translate(34.1571 4.72178) rotate(-15.98) scale(7.15014 3.62817)">
<stop stop-color="#2755F6"/>
<stop offset="0.11" stop-color="#2856F5" stop-opacity="0.97"/>
<stop offset="0.22" stop-color="#2C5BF5" stop-opacity="0.87"/>
<stop offset="0.34" stop-color="#3363F4" stop-opacity="0.73"/>
<stop offset="0.45" stop-color="#3C6EF3" stop-opacity="0.55"/>
<stop offset="0.56" stop-color="#487CF2" stop-opacity="0.35"/>
<stop offset="0.67" stop-color="#578DF1" stop-opacity="0.17"/>
<stop offset="0.78" stop-color="#69A1EF" stop-opacity="0.04"/>
<stop offset="0.88" stop-color="#7AB5EE" stop-opacity="0"/>
</radialGradient>
<radialGradient id="paint26_radial_117_2" cx="0" cy="0" r="1" gradientUnits="userSpaceOnUse" gradientTransform="translate(42.6569 2.49238) rotate(112.54) scale(7.15014 4.54848)">
<stop offset="0.23" stop-color="#2742DE"/>
<stop offset="0.31" stop-color="#334FE0" stop-opacity="0.82"/>
<stop offset="0.48" stop-color="#5273E6" stop-opacity="0.45"/>
<stop offset="0.71" stop-color="#84ACF1" stop-opacity="0.08"/>
<stop offset="0.87" stop-color="#ABD8F9" stop-opacity="0"/>
</radialGradient>
<radialGradient id="paint27_radial_117_2" cx="0" cy="0" r="1" gradientUnits="userSpaceOnUse" gradientTransform="translate(33.0244 11.266) rotate(126.6) scale(6.14134 10.4067)">
<stop offset="0.43" stop-color="#33B5FC"/>
<stop offset="0.5" stop-color="#32B0FB"/>
<stop offset="0.58" stop-color="#30A2FB"/>
<stop offset="0.66" stop-color="#2E8AFA"/>
<stop offset="0.75" stop-color="#2B6AF9"/>
<stop offset="0.81" stop-color="#284EF8"/>
</radialGradient>
<radialGradient id="paint28_radial_117_2" cx="0" cy="0" r="1" gradientUnits="userSpaceOnUse" gradientTransform="translate(40.0355 14.6299) rotate(129.14) scale(5.11484 8.68991)">
<stop offset="0.4" stop-color="#2CC0FC"/>
<stop offset="0.52" stop-color="#4BC5FB" stop-opacity="0.56"/>
<stop offset="0.68" stop-color="#74CDFA" stop-opacity="0.19"/>
<stop offset="0.82" stop-color="#91D3F9" stop-opacity="0.04"/>
<stop offset="0.92" stop-color="#A4D6F9" stop-opacity="0"/>
<stop offset="0.97" stop-color="#ABD8F9" stop-opacity="0"/>
</radialGradient>
<radialGradient id="paint29_radial_117_2" cx="0" cy="0" r="1" gradientUnits="userSpaceOnUse" gradientTransform="translate(41.8716 15.7974) rotate(115.39) scale(5.57499 4.24761)">
<stop offset="0.34" stop-color="#2680FB"/>
<stop offset="0.37" stop-color="#398DFA" stop-opacity="0.72"/>
<stop offset="0.42" stop-color="#549EFA" stop-opacity="0.43"/>
<stop offset="0.46" stop-color="#6BADF9" stop-opacity="0.23"/>
<stop offset="0.51" stop-color="#7EBAF9" stop-opacity="0.11"/>
<stop offset="0.56" stop-color="#8EC5F9" stop-opacity="0.04"/>
<stop offset="0.61" stop-color="#9BCDF9" stop-opacity="0.01"/>
<stop offset="0.67" stop-color="#A4D3F9" stop-opacity="0"/>
<stop offset="0.73" stop-color="#A9D6F9" stop-opacity="0"/>
<stop offset="0.81" stop-color="#ABD8F9" stop-opacity="0"/>
</radialGradient>
<radialGradient id="paint30_radial_117_2" cx="0" cy="0" r="1" gradientTransform="matrix(5.37048 -3.0869 -2.02854 -3.52915 37.8967 7.52527)" gradientUnits="userSpaceOnUse">
<stop offset="0.04" stop-color="#5CC2FD"/>
<stop offset="0.05" stop-color="#5EC3FD"/>
<stop offset="0.23" stop-color="#88D5FD"/>
<stop offset="0.39" stop-color="#A7E2FE"/>
<stop offset="0.52" stop-color="#BAEAFE"/>
<stop offset="0.62" stop-color="#C1EDFF"/>
</radialGradient>
<radialGradient id="paint31_radial_117_2" cx="0" cy="0" r="1" gradientTransform="matrix(2.54073 2.97377 2.55663 -2.18434 42.9941 4.11963)" gradientUnits="userSpaceOnUse">
<stop offset="0.28" stop-color="#54B9FE"/>
<stop offset="0.87" stop-color="#67CCFD"/>
</radialGradient>
</defs>
</svg>
