<svg width="56" height="56" viewBox="0 0 44 44" fill="none" xmlns="http://www.w3.org/2000/svg">
<path d="M27.9307 22.9261C28.4424 22.9261 28.8572 22.5115 28.8572 22.0001C28.8572 21.4886 28.4424 21.074 27.9307 21.074C27.419 21.074 27.0042 21.4886 27.0042 22.0001C27.0042 22.5115 27.419 22.9261 27.9307 22.9261Z" fill="#235e9a"/>
<path d="M22.8513 22.9261C23.363 22.9261 23.7779 22.5115 23.7779 22.0001C23.7779 21.4886 23.363 21.074 22.8513 21.074C22.3396 21.074 21.9248 21.4886 21.9248 22.0001C21.9248 22.5115 22.3396 22.9261 22.8513 22.9261Z" fill="#A9BD75"/>
<path d="M17.7732 22.9261C18.2849 22.9261 18.6997 22.5115 18.6997 22.0001C18.6997 21.4886 18.2849 21.074 17.7732 21.074C17.2614 21.074 16.8466 21.4886 16.8466 22.0001C16.8466 22.5115 17.2614 22.9261 17.7732 22.9261Z" fill="#8EF4AE"/>
<path d="M33.7875 25.8604C32.2673 25.8604 30.9234 26.5583 30.1046 27.6271L30.0948 27.6197C28.4179 29.7793 25.7974 31.1702 22.8526 31.1702C21.8379 31.1702 20.8624 31.0055 19.9505 30.7005C18.7045 32.3061 15.4378 32.1231 15.4378 32.1231C15.871 31.629 16.9714 29.7927 16.9787 29.0399C14.9665 27.3586 13.6875 24.8294 13.6875 22.0012C13.6875 16.9378 17.7902 12.8322 22.8513 12.8322C25.6983 12.8322 28.2417 14.1316 29.9234 16.168C29.9246 16.1692 29.9259 16.1704 29.9259 16.1716C30.0581 16.3327 30.1854 16.4974 30.3065 16.667C31.1352 17.5967 32.386 18.1884 33.7875 18.1884C36.2819 18.1884 38.3039 16.3107 38.3039 13.995C38.3039 13.1629 38.0714 12.3674 37.6197 11.7159C34.3689 7.05145 28.9663 4 22.8513 4C12.9139 4 4.85901 12.0587 4.85901 22C4.85901 31.9413 12.9139 40 22.8513 40C28.9516 40 34.3444 36.962 37.5965 32.3159L37.5904 32.3122C38.0408 31.6595 38.3015 30.8847 38.3015 30.0526C38.3015 27.7369 36.2795 25.8591 33.785 25.8591L33.7875 25.8604Z" fill="#235e9a"/>
</svg>
