<svg width="169" height="95" viewBox="0 0 169 95" fill="none" xmlns="http://www.w3.org/2000/svg">
<path d="M145.828 67.6934C143.707 67.6934 142.066 67.0623 140.905 65.8C139.743 64.5377 139.163 62.7199 139.163 60.3468V36.4135C139.163 34.0403 139.743 32.2226 140.905 30.9603C142.066 29.698 143.707 29.0668 145.828 29.0668C147.999 29.0668 149.665 29.698 150.826 30.9603C152.038 32.2226 152.644 34.0403 152.644 36.4135V60.3468C152.644 62.7199 152.063 64.5377 150.902 65.8C149.741 67.0623 148.049 67.6934 145.828 67.6934ZM145.828 23.6894C143.454 23.6894 141.612 23.134 140.299 22.0232C139.036 20.9123 138.405 19.2966 138.405 17.1759C138.405 15.1057 139.036 13.5152 140.299 12.4044C141.612 11.2936 143.454 10.7382 145.828 10.7382C148.302 10.7382 150.17 11.2936 151.432 12.4044C152.695 13.5152 153.326 15.1057 153.326 17.1759C153.326 19.2966 152.695 20.9123 151.432 22.0232C150.17 23.134 148.302 23.6894 145.828 23.6894Z" fill="#447294"/>
<path d="M112.458 67.6935C110.236 67.6935 108.519 67.1129 107.307 65.9515C106.146 64.7902 105.565 63.0987 105.565 60.8771V35.8077C105.565 33.6365 106.121 31.9702 107.232 30.8089C108.393 29.6476 110.034 29.0669 112.155 29.0669C114.275 29.0669 115.891 29.6476 117.002 30.8089C118.113 31.9702 118.668 33.6365 118.668 35.8077V38.9129H117.911C118.416 35.8834 119.703 33.485 121.773 31.7178C123.894 29.9506 126.52 29.0164 129.65 28.9155C131.115 28.865 132.2 29.2437 132.907 30.0515C133.664 30.8089 134.068 32.248 134.119 34.3686C134.119 36.1863 133.74 37.6254 132.983 38.6857C132.225 39.7461 130.786 40.3772 128.666 40.5792L126.924 40.7307C124.248 40.9831 122.304 41.7405 121.092 43.0028C119.88 44.2146 119.274 46.0323 119.274 48.456V60.8771C119.274 63.0987 118.693 64.7902 117.532 65.9515C116.371 67.1129 114.679 67.6935 112.458 67.6935Z" fill="#447294"/>
<path d="M73.2563 67.8449C70.0248 67.8449 67.374 67.2643 65.3038 66.103C63.2336 64.8912 61.6684 63.0987 60.608 60.7255C59.5982 58.3524 59.0933 55.3481 59.0933 51.7127V35.8076C59.0933 33.586 59.6739 31.9197 60.8352 30.8089C61.9966 29.6476 63.6628 29.0669 65.834 29.0669C68.0051 29.0669 69.6714 29.6476 70.8327 30.8089C71.994 31.9197 72.5747 33.586 72.5747 35.8076V52.0914C72.5747 53.9091 72.9534 55.2724 73.7108 56.1812C74.4682 57.0901 75.6547 57.5445 77.2705 57.5445C79.0882 57.5445 80.5777 56.8881 81.739 55.5753C82.9004 54.2625 83.481 52.5206 83.481 50.3494V35.8076C83.481 33.586 84.0617 31.9197 85.223 30.8089C86.3843 29.6476 88.0506 29.0669 90.2217 29.0669C92.3929 29.0669 94.0591 29.6476 95.2205 30.8089C96.3818 31.9197 96.9624 33.586 96.9624 35.8076V60.877C96.9624 65.4213 94.7913 67.6935 90.449 67.6935C88.3283 67.6935 86.6873 67.1128 85.526 65.9515C84.3646 64.7902 83.784 63.0987 83.784 60.877V56.4842L84.9958 60.1954C83.885 62.6695 82.3197 64.563 80.3 65.8758C78.3308 67.1886 75.9829 67.8449 73.2563 67.8449Z" fill="#447294"/>
<path d="M35.3262 67.8449C29.4186 67.8449 24.3441 66.7088 20.1027 64.4367C15.8614 62.1645 12.6046 58.9583 10.3325 54.8179C8.11083 50.6775 7 45.8303 7 40.2761C7 36.1357 7.63115 32.3741 8.89346 28.9911C10.2063 25.6081 12.0745 22.7048 14.4981 20.2812C16.9722 17.8576 19.9513 16.0146 23.4352 14.7523C26.9697 13.4395 30.9333 12.7831 35.3262 12.7831C37.6488 12.7831 40.0472 13.0608 42.5213 13.6162C45.0459 14.1211 47.2676 14.9038 49.1863 15.9641C50.6001 16.7215 51.5847 17.6808 52.1401 18.8422C52.6955 20.0035 52.8722 21.19 52.6702 22.4019C52.5188 23.6137 52.0896 24.6993 51.3827 25.6586C50.6758 26.618 49.7669 27.2744 48.6561 27.6278C47.5453 27.9308 46.3335 27.754 45.0207 27.0976C43.5059 26.3907 41.9911 25.8606 40.4764 25.5071C39.0121 25.1032 37.4721 24.9012 35.8563 24.9012C32.7258 24.9012 30.1002 25.5071 27.9795 26.7189C25.9094 27.8803 24.3441 29.597 23.2838 31.8692C22.2234 34.1413 21.6932 36.9436 21.6932 40.2761C21.6932 43.6086 22.2234 46.4362 23.2838 48.7588C24.3441 51.031 25.9094 52.7729 27.9795 53.9848C30.1002 55.1461 32.7258 55.7267 35.8563 55.7267C37.1691 55.7267 38.5829 55.5753 40.0977 55.2723C41.6124 54.9189 43.102 54.3887 44.5662 53.6818C46.081 53.0254 47.4191 52.8487 48.5804 53.1516C49.7922 53.4546 50.7515 54.0605 51.4584 54.9694C52.2158 55.8782 52.6955 56.9386 52.8975 58.1504C53.0994 59.3117 52.9227 60.473 52.3673 61.6343C51.8624 62.7957 50.9535 63.7298 49.6407 64.4367C47.8735 65.497 45.6771 66.3301 43.0515 66.936C40.4764 67.5419 37.9013 67.8449 35.3262 67.8449Z" fill="#447294"/>
<path d="M157.75 7H158.772L159.852 9.63418H159.898L160.978 7H162V10.9206H161.196V8.36878H161.163L160.149 10.9015H159.601L158.587 8.3592H158.554V10.9206H157.75V7Z" fill="#447294"/>
<path d="M154 7.68343V7H157.22V7.68343H156.02V10.9206H155.2V7.68343H154Z" fill="#447294"/>
<path d="M155.997 84.8303V80.5095V77.8713H157.1L156.979 80.0788H157.208C157.334 79.5314 157.5 79.0827 157.706 78.7327C157.921 78.3828 158.191 78.1225 158.514 77.952C158.837 77.7815 159.214 77.6963 159.644 77.6963C160.416 77.6963 160.999 77.9745 161.394 78.5308C161.798 79.0782 162 79.8993 162 80.9941V84.8303H160.762V81.1018C160.762 80.3121 160.636 79.7288 160.385 79.3519C160.142 78.975 159.783 78.7866 159.308 78.7866C158.877 78.7866 158.509 78.9212 158.204 79.1904C157.908 79.4596 157.675 79.8141 157.504 80.2538C157.334 80.6935 157.239 81.1691 157.221 81.6806V84.8303H155.997Z" fill="#447294" fill-opacity="0.5"/>
<path d="M150.9 85.0053C150.236 85.0053 149.648 84.8618 149.137 84.5746C148.634 84.2785 148.24 83.8567 147.952 83.3093C147.674 82.7619 147.535 82.0979 147.535 81.3172C147.535 80.5095 147.683 79.841 147.979 79.3115C148.284 78.7731 148.688 78.3693 149.191 78.1001C149.693 77.8309 150.254 77.6963 150.873 77.6963C151.519 77.6963 152.094 77.8399 152.596 78.127C153.108 78.4052 153.512 78.818 153.808 79.3654C154.104 79.9038 154.252 80.5723 154.252 81.371C154.252 82.1697 154.104 82.8382 153.808 83.3766C153.521 83.915 153.121 84.3233 152.61 84.6015C152.107 84.8707 151.537 85.0053 150.9 85.0053ZM150.954 83.9958C151.385 83.9958 151.753 83.8926 152.058 83.6862C152.372 83.4708 152.61 83.1702 152.771 82.7844C152.942 82.3985 153.027 81.9408 153.027 81.4114C153.027 80.864 152.937 80.3929 152.758 79.998C152.587 79.5942 152.341 79.2846 152.018 79.0693C151.694 78.8449 151.304 78.7327 150.846 78.7327C150.434 78.7327 150.07 78.8315 149.756 79.0289C149.442 79.2263 149.2 79.5179 149.029 79.9038C148.859 80.2807 148.774 80.7428 148.774 81.2902C148.774 82.1338 148.966 82.7978 149.352 83.2824C149.747 83.758 150.281 83.9958 150.954 83.9958Z" fill="#447294" fill-opacity="0.5"/>
<path d="M144.561 84.8303V77.8712H145.786V84.8303H144.561ZM145.18 76.6598C144.893 76.6598 144.677 76.6014 144.534 76.4848C144.39 76.3681 144.318 76.1931 144.318 75.9598C144.318 75.7265 144.39 75.5515 144.534 75.4349C144.677 75.3182 144.888 75.2599 145.166 75.2599C145.454 75.2599 145.669 75.3182 145.812 75.4349C145.956 75.5515 146.028 75.7265 146.028 75.9598C146.028 76.1842 145.956 76.3592 145.812 76.4848C145.669 76.6014 145.458 76.6598 145.18 76.6598Z" fill="#447294" fill-opacity="0.5"/>
<path d="M141.719 84.9648C141.073 84.9648 140.593 84.7898 140.279 84.4399C139.965 84.0899 139.808 83.556 139.808 82.8381V78.8941H138.758L138.771 77.8711H139.431C139.655 77.8711 139.817 77.8308 139.915 77.75C140.023 77.6692 140.086 77.5346 140.104 77.3462L140.238 76.2963H140.992V77.8711H142.998V78.9076H140.992V82.8111C140.992 83.1701 141.073 83.4303 141.235 83.5918C141.405 83.7444 141.647 83.8207 141.961 83.8207C142.132 83.8207 142.307 83.7982 142.486 83.7534C142.675 83.7085 142.859 83.6188 143.038 83.4842V84.7091C142.778 84.8078 142.536 84.8751 142.311 84.911C142.096 84.9469 141.899 84.9648 141.719 84.9648Z" fill="#447294" fill-opacity="0.5"/>
<path d="M133.661 85.0053C133.284 85.0053 132.943 84.9335 132.638 84.79C132.333 84.6374 132.091 84.4176 131.911 84.1304C131.732 83.8343 131.642 83.4619 131.642 83.0132C131.642 82.6812 131.7 82.3895 131.817 82.1383C131.943 81.887 132.131 81.6716 132.382 81.4921C132.643 81.3127 132.975 81.1646 133.378 81.048C133.782 80.9313 134.276 80.8326 134.859 80.7518C135.191 80.707 135.46 80.6621 135.667 80.6172C135.882 80.5723 136.039 80.5006 136.138 80.4018C136.237 80.2942 136.286 80.1371 136.286 79.9307C136.286 79.5897 136.169 79.3026 135.936 79.0693C135.703 78.8359 135.335 78.7193 134.832 78.7193C134.572 78.7193 134.307 78.7642 134.038 78.8539C133.769 78.9436 133.531 79.0962 133.325 79.3115C133.127 79.5179 133.002 79.8096 132.948 80.1865L131.817 79.8096C131.889 79.4865 132.006 79.1949 132.167 78.9347C132.338 78.6744 132.553 78.4546 132.813 78.2751C133.073 78.0866 133.374 77.9431 133.715 77.8444C134.065 77.7456 134.451 77.6963 134.873 77.6963C135.456 77.6963 135.94 77.795 136.326 77.9924C136.721 78.1898 137.013 78.4949 137.201 78.9077C137.399 79.3115 137.497 79.832 137.497 80.4692V82.0171C137.497 82.2953 137.502 82.6004 137.511 82.9324C137.529 83.2555 137.551 83.583 137.578 83.915C137.605 84.2381 137.632 84.5432 137.659 84.8303H136.528C136.501 84.5432 136.474 84.256 136.447 83.9689C136.43 83.6817 136.416 83.3946 136.407 83.1074H136.232C136.098 83.4394 135.918 83.749 135.694 84.0362C135.469 84.3233 135.187 84.5567 134.846 84.7361C134.514 84.9156 134.119 85.0053 133.661 85.0053ZM134.025 84.0093C134.222 84.0093 134.419 83.9779 134.617 83.915C134.823 83.8522 135.025 83.749 135.223 83.6054C135.429 83.4619 135.622 83.2779 135.801 83.0536C135.99 82.8292 136.156 82.56 136.299 82.2459V80.8999L136.649 80.9672C136.506 81.1108 136.313 81.2185 136.071 81.2902C135.837 81.362 135.577 81.4204 135.29 81.4652C135.003 81.5101 134.716 81.5594 134.428 81.6133C134.141 81.6582 133.877 81.7299 133.634 81.8287C133.401 81.9184 133.212 82.0485 133.069 82.219C132.925 82.3895 132.854 82.6228 132.854 82.919C132.854 83.2779 132.961 83.5516 133.177 83.74C133.392 83.9195 133.675 84.0093 134.025 84.0093Z" fill="#447294" fill-opacity="0.5"/>
<path d="M127.401 85.0053C126.916 85.0053 126.485 84.9515 126.108 84.8438C125.732 84.7451 125.418 84.6015 125.166 84.4131C124.915 84.2157 124.722 83.9823 124.587 83.7131C124.453 83.4439 124.381 83.1478 124.372 82.8247L125.409 82.5555C125.391 82.8517 125.462 83.1119 125.624 83.3362C125.794 83.5516 126.032 83.7176 126.337 83.8343C126.651 83.9509 127.028 84.0093 127.468 84.0093C127.997 84.0093 128.406 83.9195 128.693 83.74C128.989 83.5606 129.137 83.3138 129.137 82.9997C129.137 82.7485 129.056 82.5555 128.895 82.4209C128.733 82.2773 128.509 82.1652 128.222 82.0844C127.944 81.9947 127.612 81.9139 127.226 81.8421C126.903 81.7703 126.58 81.6896 126.257 81.5998C125.933 81.5101 125.637 81.3934 125.368 81.2499C125.108 81.0973 124.897 80.8999 124.736 80.6576C124.574 80.4153 124.493 80.1147 124.493 79.7557C124.493 79.334 124.605 78.9705 124.83 78.6654C125.054 78.3603 125.373 78.1225 125.785 77.952C126.198 77.7815 126.692 77.6963 127.266 77.6963C127.84 77.6963 128.329 77.786 128.733 77.9655C129.137 78.136 129.456 78.3783 129.689 78.6924C129.922 79.0064 130.052 79.3744 130.079 79.7961L129.016 80.0653C129.007 79.7692 128.926 79.5179 128.774 79.3115C128.63 79.1052 128.424 78.9526 128.154 78.8539C127.885 78.7462 127.571 78.6924 127.212 78.6924C126.737 78.6924 126.36 78.7821 126.082 78.9616C125.803 79.141 125.664 79.3878 125.664 79.7019C125.664 79.9352 125.745 80.1237 125.907 80.2672C126.077 80.4108 126.306 80.523 126.593 80.6038C126.88 80.6845 127.199 80.7653 127.549 80.846C127.908 80.9178 128.249 80.9986 128.572 81.0883C128.904 81.1781 129.2 81.2947 129.46 81.4383C129.72 81.5819 129.927 81.7748 130.079 82.0171C130.232 82.2504 130.308 82.551 130.308 82.919C130.308 83.3766 130.187 83.7625 129.945 84.0766C129.702 84.3817 129.361 84.615 128.922 84.7765C128.491 84.9291 127.984 85.0053 127.401 85.0053Z" fill="#447294" fill-opacity="0.5"/>
<path d="M119.466 84.8303V81.0614V77.8713H120.57L120.462 80.2942H120.691C120.772 79.7647 120.898 79.3071 121.068 78.9212C121.239 78.5353 121.463 78.2347 121.741 78.0193C122.028 77.804 122.383 77.6963 122.805 77.6963C122.894 77.6963 122.997 77.7053 123.114 77.7232C123.231 77.7322 123.365 77.7636 123.518 77.8174L123.451 79.0962C123.316 79.0423 123.181 79.0064 123.047 78.9885C122.912 78.9616 122.782 78.9481 122.656 78.9481C122.306 78.9481 122.001 79.0603 121.741 79.2846C121.49 79.509 121.279 79.8141 121.108 80.1999C120.938 80.5768 120.799 81.0031 120.691 81.4787V84.8303H119.466Z" fill="#447294" fill-opacity="0.5"/>
<path d="M114.857 85.0053C114.309 85.0053 113.825 84.9246 113.403 84.763C112.99 84.5925 112.64 84.3503 112.353 84.0362C112.066 83.7221 111.851 83.3497 111.707 82.919C111.563 82.4882 111.492 82.0036 111.492 81.4652C111.492 80.9178 111.563 80.4153 111.707 79.9577C111.851 79.5 112.062 79.1007 112.34 78.7597C112.618 78.4187 112.959 78.1584 113.363 77.979C113.767 77.7905 114.229 77.6963 114.749 77.6963C115.207 77.6963 115.624 77.7726 116.001 77.9251C116.378 78.0777 116.696 78.3155 116.957 78.6385C117.226 78.9526 117.428 79.3519 117.562 79.8365C117.697 80.3121 117.751 80.873 117.724 81.5191L112.259 81.5594V80.7249L116.984 80.6845L116.566 81.2499C116.611 80.6845 116.557 80.2179 116.405 79.85C116.252 79.482 116.032 79.2039 115.745 79.0154C115.467 78.827 115.135 78.7327 114.749 78.7327C114.336 78.7327 113.973 78.8404 113.659 79.0558C113.345 79.2712 113.102 79.5808 112.932 79.9846C112.77 80.3884 112.69 80.8775 112.69 81.4518C112.69 82.2773 112.874 82.91 113.242 83.3497C113.609 83.7804 114.157 83.9958 114.884 83.9958C115.162 83.9958 115.404 83.9644 115.611 83.9016C115.826 83.8298 116.005 83.7356 116.149 83.6189C116.302 83.4933 116.423 83.3497 116.512 83.1882C116.611 83.0266 116.687 82.8517 116.741 82.6632L117.818 82.919C117.737 83.242 117.612 83.5337 117.441 83.7939C117.28 84.0452 117.073 84.2605 116.822 84.44C116.58 84.6195 116.297 84.7586 115.974 84.8573C115.651 84.956 115.279 85.0053 114.857 85.0053Z" fill="#447294" fill-opacity="0.5"/>
<path d="M106.519 84.8303L104.028 77.8846H105.388L107.286 83.7938H107.474L109.359 77.8846H110.691L108.215 84.8303H106.519Z" fill="#447294" fill-opacity="0.5"/>
<path d="M96.9756 84.8303V80.5095V77.8713H98.0793L97.9582 80.0788H98.187C98.3127 79.5314 98.4787 79.0827 98.6851 78.7327C98.9004 78.3828 99.1696 78.1225 99.4927 77.952C99.8158 77.7815 100.193 77.6963 100.623 77.6963C101.395 77.6963 101.978 77.9745 102.373 78.5308C102.777 79.0782 102.979 79.8993 102.979 80.9941V84.8303H101.741V81.1018C101.741 80.3121 101.615 79.7288 101.364 79.3519C101.121 78.975 100.762 78.7866 100.287 78.7866C99.8561 78.7866 99.4882 78.9212 99.1831 79.1904C98.887 79.4596 98.6537 79.8141 98.4832 80.2538C98.3127 80.6935 98.2184 81.1691 98.2005 81.6806V84.8303H96.9756Z" fill="#447294" fill-opacity="0.5"/>
<path d="M91.8788 85.0053C91.2147 85.0053 90.627 84.8618 90.1155 84.5746C89.6129 84.2785 89.2181 83.8567 88.9309 83.3093C88.6528 82.7619 88.5137 82.0979 88.5137 81.3172C88.5137 80.5095 88.6617 79.841 88.9579 79.3115C89.263 78.7731 89.6668 78.3693 90.1693 78.1001C90.6718 77.8309 91.2327 77.6963 91.8519 77.6963C92.498 77.6963 93.0723 77.8399 93.5748 78.127C94.0863 78.4052 94.4901 78.818 94.7863 79.3654C95.0824 79.9038 95.2305 80.5723 95.2305 81.371C95.2305 82.1697 95.0824 82.8382 94.7863 83.3766C94.4991 83.915 94.0998 84.3233 93.5883 84.6015C93.0858 84.8707 92.5159 85.0053 91.8788 85.0053ZM91.9326 83.9958C92.3634 83.9958 92.7313 83.8926 93.0364 83.6862C93.3505 83.4708 93.5883 83.1702 93.7498 82.7844C93.9203 82.3985 94.0056 81.9408 94.0056 81.4114C94.0056 80.864 93.9158 80.3929 93.7363 79.998C93.5658 79.5942 93.3191 79.2846 92.996 79.0693C92.673 78.8449 92.2826 78.7327 91.825 78.7327C91.4122 78.7327 91.0487 78.8315 90.7347 79.0289C90.4206 79.2263 90.1783 79.5179 90.0078 79.9038C89.8373 80.2807 89.752 80.7428 89.752 81.2902C89.752 82.1338 89.945 82.7978 90.3308 83.2824C90.7257 83.758 91.2596 83.9958 91.9326 83.9958Z" fill="#447294" fill-opacity="0.5"/>
<path d="M83.7758 85.0051C83.1387 85.0051 82.5643 84.9064 82.0528 84.709C81.5503 84.5116 81.1241 84.2199 80.7741 83.8341C80.4241 83.4482 80.1549 82.9771 79.9665 82.4207C79.787 81.8554 79.6973 81.2138 79.6973 80.4959C79.6973 79.769 79.7915 79.1184 79.9799 78.5441C80.1684 77.9608 80.4376 77.4628 80.7876 77.05C81.1375 76.6372 81.5593 76.3231 82.0528 76.1078C82.5464 75.8834 83.0983 75.7712 83.7085 75.7712C84.1751 75.7712 84.6059 75.8385 85.0007 75.9731C85.3955 76.0988 85.7365 76.2872 86.0237 76.5385C86.3198 76.7808 86.5487 77.0769 86.7102 77.4269C86.8717 77.7769 86.957 78.1672 86.9659 78.5979L85.7949 78.8941C85.8038 78.4364 85.7096 78.0595 85.5122 77.7634C85.3148 77.4583 85.0545 77.2295 84.7315 77.0769C84.4084 76.9244 84.0585 76.8481 83.6816 76.8481C83.3316 76.8481 82.9906 76.9199 82.6586 77.0634C82.3355 77.1981 82.0484 77.4134 81.7971 77.7096C81.5458 77.9967 81.3439 78.3691 81.1914 78.8268C81.0478 79.2755 80.976 79.8184 80.976 80.4555C80.976 81.2721 81.0927 81.9317 81.326 82.4342C81.5683 82.9367 81.9048 83.3091 82.3355 83.5514C82.7663 83.7847 83.2643 83.9014 83.8296 83.9014C84.377 83.9014 84.8167 83.8027 85.1488 83.6052C85.4808 83.3989 85.7276 83.1162 85.8891 82.7572C86.0506 82.3893 86.1448 81.9676 86.1718 81.4919L87.2755 81.6939C87.2665 82.1425 87.1948 82.5688 87.0601 82.9726C86.9255 83.3764 86.7191 83.7309 86.441 84.036C86.1628 84.3411 85.8038 84.5789 85.3641 84.7494C84.9244 84.9199 84.395 85.0051 83.7758 85.0051Z" fill="#447294" fill-opacity="0.5"/>
<path d="M71.1516 87.1723C70.7836 87.1723 70.4202 87.1274 70.0613 87.0377C69.7113 86.9569 69.3882 86.8313 69.0921 86.6608C68.796 86.4903 68.5537 86.2704 68.3652 86.0012L68.9844 85.1128C69.1908 85.4179 69.4825 85.6513 69.8593 85.8128C70.2362 85.9743 70.649 86.0551 71.0977 86.0551C71.6002 86.0551 72.0175 85.9429 72.3495 85.7186C72.6905 85.5032 72.9463 85.1667 73.1168 84.709C73.2873 84.2424 73.377 83.6636 73.386 82.9726L73.5341 81.5727H73.2783C73.1796 82.2278 73.0226 82.7528 72.8072 83.1476C72.6008 83.5335 72.3406 83.8117 72.0265 83.9822C71.7214 84.1527 71.3669 84.2379 70.9631 84.2379C70.4606 84.2379 70.0343 84.1123 69.6844 83.861C69.3434 83.6008 69.0831 83.2239 68.9037 82.7303C68.7242 82.2278 68.6344 81.6176 68.6344 80.8997V77.8711H69.8593V80.6305C69.8593 81.5009 69.9805 82.1426 70.2228 82.5553C70.474 82.9592 70.8465 83.1611 71.34 83.1611C71.6092 83.1611 71.8515 83.0938 72.0669 82.9592C72.2822 82.8246 72.4662 82.6271 72.6187 82.3669C72.7803 82.1067 72.9059 81.7791 72.9956 81.3843C73.0944 80.9805 73.1572 80.5138 73.1841 79.9844V77.8711H74.409V83.0399C74.409 83.5873 74.3686 84.0809 74.2879 84.5206C74.2071 84.9603 74.077 85.3417 73.8975 85.6647C73.727 85.9967 73.5116 86.2749 73.2514 86.4993C72.9912 86.7236 72.6861 86.8896 72.3361 86.9973C71.9861 87.114 71.5913 87.1723 71.1516 87.1723Z" fill="#447294" fill-opacity="0.5"/>
<path d="M63.2847 84.8303V81.0614V77.8713H64.3884L64.2807 80.2942H64.5096C64.5903 79.7647 64.716 79.3071 64.8865 78.9212C65.057 78.5353 65.2813 78.2347 65.5595 78.0193C65.8466 77.804 66.2011 77.6963 66.6229 77.6963C66.7126 77.6963 66.8158 77.7053 66.9325 77.7232C67.0491 77.7322 67.1837 77.7636 67.3363 77.8174L67.269 79.0962C67.1344 79.0423 66.9998 79.0064 66.8652 78.9885C66.7306 78.9616 66.6004 78.9481 66.4748 78.9481C66.1248 78.9481 65.8197 79.0603 65.5595 79.2846C65.3082 79.509 65.0973 79.8141 64.9268 80.1999C64.7563 80.5768 64.6173 81.0031 64.5096 81.4787V84.8303H63.2847Z" fill="#447294" fill-opacity="0.5"/>
<path d="M58.6742 85.0053C58.1268 85.0053 57.6422 84.9246 57.2205 84.763C56.8077 84.5925 56.4577 84.3503 56.1706 84.0362C55.8834 83.7221 55.668 83.3497 55.5245 82.919C55.3809 82.4882 55.3091 82.0036 55.3091 81.4652C55.3091 80.9178 55.3809 80.4153 55.5245 79.9577C55.668 79.5 55.8789 79.1007 56.1571 78.7597C56.4353 78.4187 56.7763 78.1584 57.1801 77.979C57.5839 77.7905 58.046 77.6963 58.5665 77.6963C59.0242 77.6963 59.4415 77.7726 59.8183 77.9251C60.1952 78.0777 60.5138 78.3155 60.774 78.6385C61.0433 78.9526 61.2452 79.3519 61.3798 79.8365C61.5144 80.3121 61.5682 80.873 61.5413 81.5191L56.0763 81.5594V80.7249L60.801 80.6845L60.3837 81.2499C60.4286 80.6845 60.3747 80.2179 60.2222 79.85C60.0696 79.482 59.8498 79.2039 59.5626 79.0154C59.2844 78.827 58.9524 78.7327 58.5665 78.7327C58.1537 78.7327 57.7903 78.8404 57.4762 79.0558C57.1621 79.2712 56.9199 79.5808 56.7494 79.9846C56.5878 80.3884 56.5071 80.8775 56.5071 81.4518C56.5071 82.2773 56.691 82.91 57.0589 83.3497C57.4269 83.7804 57.9743 83.9958 58.7011 83.9958C58.9793 83.9958 59.2216 83.9644 59.428 83.9016C59.6434 83.8298 59.8228 83.7356 59.9664 83.6189C60.119 83.4933 60.2401 83.3497 60.3298 83.1882C60.4286 83.0266 60.5048 82.8517 60.5587 82.6632L61.6355 82.919C61.5547 83.242 61.4291 83.5337 61.2586 83.7939C61.0971 84.0452 60.8907 84.2605 60.6394 84.44C60.3971 84.6195 60.1145 84.7586 59.7914 84.8573C59.4684 84.956 59.096 85.0053 58.6742 85.0053Z" fill="#447294" fill-opacity="0.5"/>
<path d="M50.3364 84.8303L47.8462 77.8846H49.2057L51.1036 83.7938H51.2921L53.1765 77.8846H54.5091L52.0324 84.8303H50.3364Z" fill="#447294" fill-opacity="0.5"/>
<path d="M40.9536 84.8302V75.9463H42.192V84.8302H40.9536ZM41.5863 84.8302V83.7668H47.1858V84.8302H41.5863ZM41.5863 80.7921V79.796H46.5532V80.7921H41.5863ZM41.5863 76.9962V75.9463H47.1724V76.9962H41.5863Z" fill="#447294" fill-opacity="0.5"/>
<path d="M31.7283 85.0052C31.136 85.0052 30.629 84.8481 30.2072 84.534C29.7855 84.22 29.4624 83.7892 29.2381 83.2418C29.0227 82.6944 28.915 82.0663 28.915 81.3574C28.915 80.6485 29.0227 80.0203 29.2381 79.4729C29.4535 78.9255 29.7675 78.4948 30.1803 78.1807C30.5931 77.8666 31.1001 77.7096 31.7014 77.7096C32.1949 77.7096 32.5987 77.8128 32.9128 78.0192C33.2269 78.2256 33.4781 78.4948 33.6666 78.8268C33.864 79.1499 34.0076 79.5043 34.0973 79.8902H34.3396C34.2947 79.6299 34.2544 79.3607 34.2185 79.0826C34.1826 78.7954 34.1512 78.5172 34.1242 78.248C34.0973 77.9698 34.0839 77.723 34.0839 77.5077V75.4078H35.3222V81.3978V84.8302H34.2185L34.2858 82.9457H34.0704C33.9627 83.3495 33.8102 83.7085 33.6127 84.0226C33.4153 84.3277 33.1641 84.5699 32.859 84.7494C32.5539 84.9199 32.177 85.0052 31.7283 85.0052ZM32.011 83.9283C32.334 83.9283 32.6256 83.8521 32.8859 83.6995C33.1461 83.5469 33.366 83.3495 33.5454 83.1072C33.7249 82.856 33.8595 82.5868 33.9493 82.2996C34.048 82.0125 34.0973 81.7343 34.0973 81.4651V81.3035C34.0973 81.1151 34.0704 80.9132 34.0166 80.6978C33.9627 80.4735 33.882 80.2491 33.7743 80.0248C33.6756 79.8004 33.541 79.594 33.3705 79.4056C33.2089 79.2082 33.016 79.0556 32.7917 78.9479C32.5673 78.8313 32.3161 78.773 32.0379 78.773C31.6341 78.773 31.2931 78.8896 31.0149 79.1229C30.7457 79.3473 30.5393 79.6569 30.3957 80.0517C30.2611 80.4465 30.1938 80.8907 30.1938 81.3843C30.1938 81.8958 30.2656 82.3445 30.4092 82.7303C30.5527 83.1072 30.7591 83.4034 31.0283 83.6187C31.3065 83.8251 31.6341 83.9283 32.011 83.9283Z" fill="#447294" fill-opacity="0.5"/>
<path d="M21.2339 84.8303V80.5095V77.8713H22.3376L22.2165 80.0788H22.4453C22.571 79.5314 22.737 79.0827 22.9434 78.7327C23.1587 78.3828 23.4279 78.1225 23.751 77.952C24.0741 77.7815 24.4509 77.6963 24.8817 77.6963C25.6534 77.6963 26.2367 77.9745 26.6315 78.5308C27.0354 79.0782 27.2373 79.8993 27.2373 80.9941V84.8303H25.9989V81.1018C25.9989 80.3121 25.8733 79.7288 25.622 79.3519C25.3797 78.975 25.0208 78.7866 24.5452 78.7866C24.1144 78.7866 23.7465 78.9212 23.4414 79.1904C23.1453 79.4596 22.912 79.8141 22.7415 80.2538C22.571 80.6935 22.4767 81.1691 22.4588 81.6806V84.8303H21.2339Z" fill="#447294" fill-opacity="0.5"/>
<path d="M15.3428 85.0053C14.9659 85.0053 14.6249 84.9335 14.3198 84.79C14.0147 84.6374 13.7724 84.4176 13.5929 84.1304C13.4135 83.8343 13.3237 83.4619 13.3237 83.0132C13.3237 82.6812 13.3821 82.3895 13.4987 82.1383C13.6243 81.887 13.8128 81.6716 14.0641 81.4921C14.3243 81.3127 14.6563 81.1646 15.0601 81.048C15.4639 80.9313 15.9575 80.8326 16.5408 80.7518C16.8728 80.707 17.142 80.6621 17.3484 80.6172C17.5638 80.5723 17.7208 80.5006 17.8195 80.4018C17.9182 80.2942 17.9676 80.1371 17.9676 79.9307C17.9676 79.5897 17.8509 79.3026 17.6176 79.0693C17.3843 78.8359 17.0164 78.7193 16.5139 78.7193C16.2536 78.7193 15.9889 78.7642 15.7197 78.8539C15.4505 78.9436 15.2127 79.0962 15.0063 79.3115C14.8089 79.5179 14.6832 79.8096 14.6294 80.1865L13.4987 79.8096C13.5705 79.4865 13.6872 79.1949 13.8487 78.9347C14.0192 78.6744 14.2346 78.4546 14.4948 78.2751C14.755 78.0866 15.0556 77.9431 15.3966 77.8444C15.7466 77.7456 16.1325 77.6963 16.5542 77.6963C17.1375 77.6963 17.6221 77.795 18.008 77.9924C18.4028 78.1898 18.6945 78.4949 18.8829 78.9077C19.0803 79.3115 19.179 79.832 19.179 80.4692V82.0171C19.179 82.2953 19.1835 82.6004 19.1925 82.9324C19.2105 83.2555 19.2329 83.583 19.2598 83.915C19.2867 84.2381 19.3136 84.5432 19.3406 84.8303H18.2099C18.183 84.5432 18.156 84.256 18.1291 83.9689C18.1112 83.6817 18.0977 83.3946 18.0887 83.1074H17.9138C17.7792 83.4394 17.5997 83.749 17.3753 84.0362C17.151 84.3233 16.8683 84.5567 16.5273 84.7361C16.1953 84.9156 15.8005 85.0053 15.3428 85.0053ZM15.7062 84.0093C15.9037 84.0093 16.1011 83.9779 16.2985 83.915C16.5049 83.8522 16.7068 83.749 16.9042 83.6054C17.1106 83.4619 17.3035 83.2779 17.483 83.0536C17.6715 82.8292 17.8375 82.56 17.9811 82.2459V80.8999L18.331 80.9672C18.1875 81.1108 17.9945 81.2185 17.7522 81.2902C17.5189 81.362 17.2587 81.4204 16.9715 81.4652C16.6844 81.5101 16.3972 81.5594 16.1101 81.6133C15.8229 81.6582 15.5582 81.7299 15.3159 81.8287C15.0826 81.9184 14.8941 82.0485 14.7505 82.219C14.607 82.3895 14.5352 82.6228 14.5352 82.919C14.5352 83.2779 14.6429 83.5516 14.8582 83.74C15.0736 83.9195 15.3563 84.0093 15.7062 84.0093Z" fill="#447294" fill-opacity="0.5"/>
<path d="M7 84.8302V75.9463H8.23836V84.8302H7ZM7.40381 84.8302V83.7534H12.3842V84.8302H7.40381Z" fill="#447294" fill-opacity="0.5"/>
</svg>
